<?xml version="1.0" standalone="no"?>
<!DOCTYPE svg PUBLIC "-//W3C//DTD SVG 1.1//EN" "http://www.w3.org/Graphics/SVG/1.1/DTD/svg11.dtd" >
<svg xmlns="http://www.w3.org/2000/svg">
<metadata></metadata>
<defs>
<font id="odudo_softlight" horiz-adv-x="1746" >
<font-face units-per-em="2048" ascent="1638" descent="-410" />
<missing-glyph horiz-adv-x="645" />
<glyph horiz-adv-x="0" />
<glyph horiz-adv-x="682" />
<glyph unicode=" "  horiz-adv-x="645" />
<glyph unicode="&#x09;" horiz-adv-x="645" />
<glyph unicode="&#xa0;" horiz-adv-x="645" />
<glyph unicode="!" horiz-adv-x="413" d="M113 98q0 40 27.5 65t66.5 25q38 0 66 -25t28 -65q0 -41 -28.5 -69.5t-65.5 -28.5q-39 0 -66.5 28.5t-27.5 69.5zM135 328v1151q0 37 37 37h68q36 0 36 -37v-1151q0 -37 -36 -37h-68q-37 0 -37 37z" />
<glyph unicode="&#x22;" horiz-adv-x="645" d="M113 1475q-9 41 32 41h56q32 0 41 -33l71 -289q9 -41 -32 -41h-58q-34 0 -41 33zM342 1475q-9 41 33 41h55q32 0 41 -33l72 -289q9 -41 -33 -41h-57q-34 0 -41 33z" />
<glyph unicode="#" horiz-adv-x="1546" d="M100 479l15 70q7 33 39 33h241l70 368h-225q-19 0 -27.5 11t-5.5 30l14 70q7 33 39 33h234l73 389q7 33 39 33h76q19 0 27.5 -11t5.5 -30l-78 -381h389l80 389q7 33 39 33h65q39 0 33 -41l-74 -381h254q19 0 27.5 -11t5.5 -30l-14 -70q-7 -33 -39 -33h-258l-70 -368h242 q19 0 27.5 -11t5.5 -30l-15 -70q-7 -33 -39 -33h-249l-78 -405q-7 -33 -39 -33h-72q-39 0 -33 41l74 397h-389l-78 -405q-7 -33 -39 -33h-67q-39 0 -33 41l78 397h-238q-19 0 -27.5 11t-5.5 30zM539 582h389l73 368h-389z" />
<glyph unicode="$" horiz-adv-x="1040" d="M104 1135q6 142 95.5 245t224.5 136v165q0 37 37 37h71q37 0 37 -37v-155q118 -8 230 -78q22 -17 6 -43l-45 -66q-15 -24 -43 -8q-100 60 -193 60q-109 0 -189.5 -77.5t-80.5 -189.5q0 -51 18.5 -92t55 -72.5t74 -53t92.5 -46.5q159 -70 235 -122q209 -144 209 -355 q0 -158 -103 -270t-266 -127v-172q0 -37 -37 -37h-71q-37 0 -37 37v180q-159 30 -299 149q-23 20 -6 43l49 78q16 25 45 6q167 -131 305 -131q109 0 186.5 72t77.5 174q0 48 -19.5 92t-49.5 76.5t-77 65.5t-88.5 55.5t-98.5 48.5q-34 15 -53 24.5t-52.5 27.5t-54.5 31.5 t-50 36t-46.5 43t-37.5 49t-30.5 57.5t-16.5 66t-4 77z" />
<glyph unicode="%" horiz-adv-x="1585" d="M102 1190q0 -134 97 -230t231 -96q135 0 232.5 95.5t97.5 230.5t-97.5 230.5t-232.5 95.5q-134 0 -231 -96t-97 -230zM248 1190q0 76 53 128t129 52q77 0 130.5 -52t53.5 -128q0 -74 -54 -127t-130 -53q-75 0 -128.5 53t-53.5 127zM340 12q7 -12 29 -12h84q33 0 45 27 l757 1446q9 19 2 31t-28 12h-84q-33 0 -45 -27l-758 -1446q-9 -19 -2 -31zM836 322q0 -134 96 -230t229 -96q137 0 234.5 95.5t97.5 230.5t-97.5 230t-234.5 95q-133 0 -229 -95.5t-96 -229.5zM981 322q0 76 53 128t127 52q78 0 132.5 -52t54.5 -128q0 -74 -54.5 -127.5 t-132.5 -53.5q-73 0 -126.5 53.5t-53.5 127.5z" />
<glyph unicode="&#x26;" horiz-adv-x="1269" d="M102 449q0 122 58 225.5t162 167.5q-62 56 -101 135t-39 168q0 158 112 270.5t269 112.5q158 0 268.5 -112t110.5 -269q0 -155 -107 -266t-260 -117l318 -375l139 295q16 32 49 16l64 -28q32 -16 16 -49l-170 -353l135 -159q12 -14 11 -28.5t-15 -25.5l-53 -45 q-31 -24 -53 4l-103 125q-65 -75 -157 -117t-193 -42q-125 0 -231 62.5t-168 170t-62 234.5zM244 444q0 -133 93.5 -226t223.5 -93q75 0 143.5 33.5t114.5 91.5l-403 483q-79 -43 -125.5 -120.5t-46.5 -168.5zM326 1145q0 -98 69.5 -168t167.5 -70q97 0 166.5 70t69.5 168 q0 97 -70 168t-166 71q-98 0 -167.5 -71t-69.5 -168z" />
<glyph unicode="'" horiz-adv-x="415" d="M113 1475q-9 41 32 41h56q32 0 41 -33l71 -289q9 -41 -32 -41h-58q-34 0 -41 33z" />
<glyph unicode="(" horiz-adv-x="612" d="M133 649q0 -408 244 -811q21 -31 51 -10l61 39q30 20 13 49q-124 223 -177 381t-53 358q0 404 228 758q20 33 -11 51l-51 31q-31 20 -51 -10q-121 -173 -187.5 -391.5t-66.5 -444.5z" />
<glyph unicode=")" horiz-adv-x="612" d="M111 -84q-18 -29 12 -49l61 -39q30 -21 52 10q119 196 181 394t62 417q0 226 -66.5 444.5t-187.5 391.5q-20 30 -51 10l-51 -31q-30 -18 -10 -51q227 -353 227 -758q0 -201 -52.5 -359t-176.5 -380z" />
<glyph unicode="*" horiz-adv-x="931" d="M92 1053v61q0 29 29 29h198l-139 139q-19 19 0 41l43 47q19 22 41 0l144 -143v200q0 29 28 29h64q28 0 28 -29v-200l140 143q9 10 20.5 10t20.5 -10l45 -47q20 -19 -2 -41l-140 -139h199q29 0 29 -29v-61q0 -29 -29 -29h-199l140 -143q20 -21 0 -41l-43 -43 q-22 -22 -41 0l-140 143v-205q0 -28 -28 -28h-64q-28 0 -28 28v205l-144 -143q-9 -9 -20.5 -9t-20.5 9l-43 43q-20 20 0 41l139 143h-198q-29 0 -29 29z" />
<glyph unicode="+" horiz-adv-x="1282" d="M92 528v66q0 37 37 37h446v436q0 37 37 37h66q37 0 37 -37v-436h448q37 0 37 -37v-66q0 -36 -37 -36h-448v-459q0 -37 -37 -37h-66q-37 0 -37 37v459h-446q-37 0 -37 36z" />
<glyph unicode="," horiz-adv-x="405" d="M92 -92q-9 -41 33 -41h57q34 0 41 33l70 288q9 41 -33 41h-55q-33 0 -41 -32z" />
<glyph unicode="-" horiz-adv-x="774" d="M113 575q0 -36 37 -36h475q37 0 37 36v84q0 37 -37 37h-475q-37 0 -37 -37v-84z" />
<glyph unicode="." horiz-adv-x="374" d="M92 92q0 -35 29.5 -63.5t64.5 -28.5q42 0 69.5 28t27.5 64q0 40 -27.5 68t-69.5 28q-36 0 -65 -28.5t-29 -67.5z" />
<glyph unicode="/" horiz-adv-x="892" d="M88 43q-8 -19 0.5 -31t28.5 -12h76q27 0 40 29l562 1444q8 19 -0.5 31t-28.5 12h-78q-28 0 -41 -29z" />
<glyph unicode="0" horiz-adv-x="1251" d="M154 457q0 -126 63.5 -234t172.5 -171.5t237 -63.5q193 0 332 138.5t139 330.5v602q0 192 -139 330.5t-332 138.5q-128 0 -237 -63.5t-172.5 -171.5t-63.5 -234v-602zM297 457v602q0 134 97 229.5t233 95.5q135 0 231 -95.5t96 -229.5v-602q0 -134 -96 -230t-231 -96 q-136 0 -233 96t-97 230z" />
<glyph unicode="1" horiz-adv-x="708" d="M113 1423v62q0 14 8.5 22.5t21.5 8.5h344q37 0 37 -37v-1442q0 -37 -37 -37h-69q-37 0 -37 37v1356h-238q-13 0 -21.5 8.5t-8.5 21.5z" />
<glyph unicode="2" horiz-adv-x="1202" d="M184 1343q122 161 319 188t349 -97q97 -80 137 -200t18 -240.5t-98 -211.5l-526 -639h629q37 0 37 -37v-69q0 -37 -37 -37h-774q-37 0 -37 37v80q0 25 16 47l582 708q83 102 69.5 239.5t-112.5 219.5q-63 52 -145 64t-168.5 -22.5t-151.5 -112.5q-21 -30 -51 -7l-50 39 q-28 22 -6 51z" />
<glyph unicode="3" horiz-adv-x="1189" d="M123 307q-12 34 22 47l66 25q32 11 47 -23q37 -100 117.5 -159.5t185.5 -59.5q135 0 227.5 92t92.5 220q0 130 -94 227.5t-230 97.5h-20q-13 0 -22 9t-9 22v74q0 13 8.5 21.5t22.5 8.5h20q98 0 169 71t71 169t-71 170t-169 72q-63 0 -117.5 -32t-91.5 -89 q-21 -34 -51 -13l-51 35q-32 21 -15 49q54 89 140 138t186 49q158 0 270.5 -112t112.5 -269q0 -89 -39 -167.5t-108 -131.5q106 -59 169.5 -166t63.5 -233q0 -190 -137 -325.5t-328 -135.5q-144 0 -265 84t-173 235z" />
<glyph unicode="4" horiz-adv-x="1298" d="M123 338v82q0 23 14 45l725 1028q14 23 45 23h45q37 0 37 -37v-1035h150q37 0 37 -36v-70q0 -37 -37 -37h-150v-264q0 -37 -37 -37h-69q-37 0 -37 37v264h-686q-37 0 -37 37zM295 444h551v779z" />
<glyph unicode="5" horiz-adv-x="1185" d="M156 164q-21 27 6 51l53 43q26 23 51 -6q105 -121 271 -121q151 0 256.5 106t105.5 257q0 150 -106 256t-256 106q-110 0 -193 -59q-27 -18 -53 2l-64 47q-21 16 -18 47l88 588q6 35 39 35h553q37 0 37 -37v-70q0 -37 -37 -37h-467l-60 -407q88 32 177 32q101 0 194 -40 t160.5 -107.5t108 -160.5t40.5 -195q0 -137 -68 -253.5t-185 -184.5t-254 -68q-110 0 -208 45t-171 131z" />
<glyph unicode="6" horiz-adv-x="1284" d="M164 492q0 142 57 237l451 756q18 30 49 12l55 -33q34 -20 15 -51l-259 -432q75 20 136 20q137 0 253 -68t183 -185.5t67 -255.5q0 -135 -67 -251t-183 -184.5t-253 -68.5t-253.5 68.5t-183.5 184.5t-67 251zM303 492q0 -148 107.5 -254.5t257.5 -106.5t257 106.5 t107 254.5q0 151 -106.5 258.5t-257.5 107.5q-153 0 -259 -109.5t-106 -256.5z" />
<glyph unicode="7" horiz-adv-x="987" d="M72 1409v70q0 37 37 37h749q37 0 37 -37v-84q0 -26 -8 -45l-453 -1319q-9 -31 -41 -31h-82q-20 0 -28 12t-2 31l460 1329h-632q-37 0 -37 37z" />
<glyph unicode="8" horiz-adv-x="1216" d="M143 455q0 126 62.5 234.5t169.5 168.5q-65 53 -102 129.5t-37 163.5q0 157 109.5 267t264.5 110t265 -110.5t110 -264.5q0 -87 -38.5 -164t-104.5 -131q107 -60 169 -168.5t62 -234.5q0 -194 -136 -330.5t-329 -136.5t-329 136.5t-136 330.5zM285 455 q0 -133 95.5 -228.5t229.5 -95.5q133 0 227.5 95.5t94.5 228.5q0 132 -94.5 226.5t-227.5 94.5q-134 0 -229.5 -94t-95.5 -227zM379 1153q0 -96 66.5 -162.5t162.5 -66.5t165 66.5t69 162.5q0 95 -69 163t-165 68q-95 0 -162 -68t-67 -163z" />
<glyph unicode="9" horiz-adv-x="1212" d="M113 1026q0 137 67 253.5t183 184.5t253 68t253 -68t183.5 -185t67.5 -255t-57 -233l-451 -766q-16 -25 -43 -25h-80q-22 0 -28.5 12.5t4.5 32.5l287 494q-79 -21 -140 -21q-134 0 -249 68.5t-182.5 185.5t-67.5 254zM252 1026q0 -150 107 -257t257 -107q153 0 259 109.5 t106 256.5q0 148 -107.5 254.5t-257.5 106.5t-257 -106.5t-107 -256.5z" />
<glyph unicode=":" horiz-adv-x="364" d="M92 96q0 -37 28 -66.5t66 -29.5t67.5 29.5t29.5 66.5q0 38 -29 66t-68 28q-38 0 -66 -28t-28 -66zM92 930q0 -37 28.5 -64.5t65.5 -27.5t67 28t30 64t-30 65t-67 29t-65.5 -28.5t-28.5 -65.5z" />
<glyph unicode=";" horiz-adv-x="415" d="M102 -92l72 289q8 32 41 32h55q42 0 33 -41l-70 -288q-7 -33 -40 -33h-58q-42 0 -33 41zM123 930q0 37 28.5 65.5t65.5 28.5t66.5 -28.5t29.5 -65.5q0 -36 -29.5 -64t-66.5 -28t-65.5 27.5t-28.5 64.5z" />
<glyph unicode="&#x3c;" horiz-adv-x="1030" d="M123 477q0 -28 24 -43l754 -448q15 -9 26 -3.5t11 23.5v105q0 25 -20 36l-629 365l629 367q20 11 20 36v101q0 18 -11 23.5t-26 -3.5l-754 -446q-24 -15 -24 -43v-70z" />
<glyph unicode="=" horiz-adv-x="1193" d="M123 371q0 -37 37 -37h884q37 0 37 37v65q0 37 -37 37h-884q-37 0 -37 -37v-65zM123 711q0 -37 37 -37h884q37 0 37 37v65q0 37 -37 37h-884q-37 0 -37 -37v-65z" />
<glyph unicode="&#x3e;" horiz-adv-x="1030" d="M92 6q0 -18 11 -23.5t26 3.5l754 448q24 15 24 43v70q0 28 -24 43l-754 446q-15 9 -26 3.5t-11 -23.5v-101q0 -24 21 -36l628 -367l-628 -365q-21 -12 -21 -36v-105z" />
<glyph unicode="?" horiz-adv-x="1054" d="M98 1292q-16 -31 19 -49l63 -29q29 -14 49 19q36 65 95 104t122.5 48t129 -7.5t117 -54.5t84 -100.5t32.5 -137.5q0 -133 -90.5 -224t-218.5 -91h-37q-37 0 -37 -37v-405q0 -37 37 -37h69q37 0 37 37v303q164 28 273.5 154.5t109.5 293.5q0 188 -132.5 321.5 t-319.5 133.5q-127 0 -236 -65.5t-166 -176.5zM412 96q0 -40 28 -68t66 -28q39 0 67.5 28.5t28.5 67.5q0 38 -29 66t-67 28t-66 -28t-28 -66z" />
<glyph unicode="@" horiz-adv-x="1744" d="M102 760q0 125 39 242t110.5 211.5t166.5 165.5t212.5 110t243.5 39q209 0 385.5 -103t279.5 -280.5t103 -386.5q0 -97 -19 -184.5t-57 -160t-102 -115t-147 -42.5q-109 0 -183 66t-83 137q-110 -88 -240 -88q-155 0 -267 111t-112 266t112 264.5t269 109.5 q127 0 229 -82v25q0 37 37 37h68q37 0 37 -37v-537q3 -56 41 -93.5t92 -37.5q50 0 87 34t57.5 89.5t30 115.5t9.5 122q0 172 -84 316.5t-228.5 228t-314.5 83.5q-171 0 -315.5 -84t-228.5 -228.5t-84 -315.5q0 -128 50 -244.5t134 -201t199.5 -134t242.5 -49.5q90 0 179 25 q36 9 45 -27l14 -68q6 -36 -27 -45q-102 -26 -211 -26q-208 0 -385.5 104t-281 281.5t-103.5 386.5zM575 748q0 -97 69.5 -166.5t164.5 -69.5t164 69.5t69 166.5q0 95 -68 163t-165 68t-165.5 -68t-68.5 -163z" />
<glyph unicode="A" horiz-adv-x="1497" d="M104 35l580 1456q9 25 37 25h65q28 0 37 -25l580 -1456q3 -9 3 -15q0 -20 -28 -20h-92q-28 0 -37 25l-110 276h-770l-111 -276q-9 -25 -37 -25h-92q-28 0 -28 20q0 6 3 15zM424 442h661l-331 832z" />
<glyph unicode="B" horiz-adv-x="1089" d="M133 37v1442q0 37 37 37h352q172 0 294 -122t122 -292q0 -98 -43 -184t-117 -144q96 -55 152.5 -150t56.5 -208q0 -172 -122 -294t-294 -122h-401q-37 0 -37 37zM279 143h292q112 0 191.5 80t79.5 191q0 113 -79.5 192.5t-191.5 79.5h-292v-543zM279 831h243 q112 0 191.5 79.5t79.5 191.5q0 111 -79.5 190.5t-191.5 79.5h-243v-541z" />
<glyph unicode="C" horiz-adv-x="1495" d="M92 758q0 -156 61 -298.5t164.5 -246t247 -164.5t301.5 -61q267 0 488 176q16 13 16 28q0 11 -8 23l-41 55q-24 30 -51 6q-188 -145 -410 -145q-168 0 -312 84t-228 228.5t-84 314.5q0 127 50 243t134 200t199.5 133.5t240.5 49.5q219 0 410 -147q29 -26 51 6l39 51 q9 14 9 25q0 15 -15 27q-229 182 -498 182q-153 0 -294.5 -61t-244 -164.5t-164 -246t-61.5 -298.5z" />
<glyph unicode="D" horiz-adv-x="1357" d="M133 37v1442q0 37 37 37h338q154 0 294.5 -60t242 -161.5t161.5 -242t60 -294.5t-60 -294.5t-161.5 -242t-242 -161.5t-294.5 -60h-338q-37 0 -37 37zM276 143h232q166 0 307.5 82.5t224 224.5t82.5 308t-82.5 307.5t-224 224t-307.5 82.5h-232v-1229z" />
<glyph unicode="E" horiz-adv-x="1015" d="M133 37v1442q0 37 37 37h696q37 0 37 -37v-70q0 -37 -37 -37h-590v-549h555q14 0 22.5 -8.5t8.5 -21.5v-66q0 -13 -9 -22t-22 -9h-555v-553h590q37 0 37 -37v-69q0 -37 -37 -37h-696q-37 0 -37 37z" />
<glyph unicode="F" horiz-adv-x="960" d="M133 37v1442q0 37 37 37h661q37 0 37 -37v-70q0 -37 -37 -37h-555v-549h521q13 0 21.5 -8.5t8.5 -21.5v-66q0 -14 -8.5 -22.5t-21.5 -8.5h-521v-659q0 -37 -36 -37h-70q-37 0 -37 37z" />
<glyph unicode="G" horiz-adv-x="1716" d="M102 756q0 156 61.5 299t164.5 246.5t245 165t297 61.5q122 0 249 -47t239 -135q29 -23 6 -52l-41 -53q-21 -30 -51 -6q-90 69 -196.5 109t-205.5 40q-126 0 -241.5 -49.5t-199 -133.5t-133.5 -200.5t-50 -244.5q0 -130 47 -246t128 -199t193.5 -131.5t237.5 -48.5 q117 0 222.5 42.5t183.5 115.5t129.5 172.5t64.5 212.5h-647q-13 0 -22 9t-9 22v65q0 14 9 22.5t22 8.5h762q37 0 37 -37v-37q-8 -204 -109 -373.5t-271 -267.5t-372 -98q-210 0 -383 104t-270 280t-97 384z" />
<glyph unicode="H" horiz-adv-x="1200" d="M133 37v1442q0 37 37 37h70q36 0 36 -37v-658h658v658q0 37 37 37h69q37 0 37 -37v-1442q0 -37 -37 -37h-69q-37 0 -37 37v657h-658v-657q0 -37 -36 -37h-70q-37 0 -37 37z" />
<glyph unicode="I" horiz-adv-x="397" d="M133 37q0 -37 37 -37h68q36 0 36 37v1442q0 37 -36 37h-68q-37 0 -37 -37v-1442z" />
<glyph unicode="J" horiz-adv-x="733" d="M102 37v67q0 37 37 37h127q79 0 136 57.5t57 135.5v1145q0 37 37 37h67q37 0 37 -37v-1145q0 -138 -98 -236t-236 -98h-127q-37 0 -37 37z" />
<glyph unicode="K" horiz-adv-x="1118" d="M133 37v1442q0 37 37 37h70q36 0 36 -37v-639l502 657q14 19 37 19h88q19 0 24.5 -11t-5.5 -26l-484 -633l561 -809q7 -12 7 -20q0 -4 -2 -7q-4 -10 -23 -10h-100q-26 0 -39 20l-490 715l-76 -100v-598q0 -37 -36 -37h-70q-37 0 -37 37z" />
<glyph unicode="L" horiz-adv-x="948" d="M133 37q0 -37 37 -37h659q37 0 37 37v69q0 37 -37 37h-553v1336q0 37 -36 37h-70q-37 0 -37 -37v-1442z" />
<glyph unicode="M" horiz-adv-x="1744" d="M133 37v1442q0 37 37 37h55q22 0 35 -23l617 -1245l616 1245q13 23 35 23h57q37 0 37 -37v-1442q0 -37 -37 -37h-69q-37 0 -37 37v1147l-553 -1116q-10 -19 -29 -19h-39q-20 0 -29 19l-553 1116v-1147q0 -37 -36 -37h-70q-37 0 -37 37z" />
<glyph unicode="N" horiz-adv-x="1394" d="M133 37v1442q0 37 37 37h49q26 0 39 -19l870 -1235v1217q0 37 37 37h70q37 0 37 -37v-1442q0 -37 -37 -37h-49q-27 0 -39 18l-871 1235v-1216q0 -37 -36 -37h-70q-37 0 -37 37z" />
<glyph unicode="O" d="M102 760q0 209 103.5 386t281.5 280.5t387 103.5q156 0 299 -61t246 -164.5t164.5 -246t61.5 -298.5q0 -157 -61.5 -300t-164.5 -246.5t-246 -164.5t-299 -61q-157 0 -300 61t-246.5 164.5t-164.5 246.5t-61 300zM246 760q0 -127 50 -243.5t134 -201t200.5 -134.5 t243.5 -50q169 0 313.5 84.5t229 229.5t84.5 315q0 169 -84.5 313.5t-229 228.5t-313.5 84q-127 0 -243.5 -50t-200.5 -134t-134 -199.5t-50 -242.5z" />
<glyph unicode="P" horiz-adv-x="1073" d="M133 37v1442q0 37 37 37h403q177 0 302.5 -125.5t125.5 -300.5q0 -177 -125.5 -302.5t-302.5 -125.5h-297v-625q0 -37 -36 -37h-70q-37 0 -37 37zM276 805h297q119 0 202 83.5t83 201.5q0 117 -83.5 199.5t-201.5 82.5h-297v-567z" />
<glyph unicode="Q" d="M102 756q0 209 103.5 386t281.5 280.5t387 103.5q157 0 300 -61t246 -164.5t164 -246t61 -298.5q0 -149 -53 -284t-150 -239l133 -133q25 -25 0 -53l-33 -35q-25 -28 -53 0l-137 138q-209 -166 -478 -166q-157 0 -300 61t-246.5 164.5t-164.5 246.5t-61 300zM246 756 q0 -127 50 -243.5t134 -201t200.5 -134.5t243.5 -50q209 0 375 125l-123 123q-25 25 0 53l31 33q25 28 53 0l129 -127q162 182 162 422q0 127 -49.5 242.5t-133.5 199.5t-200.5 134t-243.5 50t-243.5 -50t-200.5 -134t-134 -199.5t-50 -242.5z" />
<glyph unicode="R" horiz-adv-x="1097" d="M131 37v1442q0 37 37 37h403q175 0 300.5 -125t125.5 -301q0 -162 -106 -282t-264 -140l377 -631q6 -12 6 -20q0 -17 -27 -17h-94q-26 0 -37 20l-375 644h-203v-627q0 -37 -36 -37h-70q-37 0 -37 37zM274 807h297q117 0 200 83t83 200t-83 199.5t-200 82.5h-297v-565z " />
<glyph unicode="S" horiz-adv-x="1030" d="M104 1135v-17q0 -42 8 -80q10 -46 26 -79.5t47.5 -67t56 -54t68 -46t68.5 -38t71 -34.5q61 -29 99 -49t87.5 -53.5t78 -64.5t48.5 -74.5t20 -92.5q0 -105 -77 -179.5t-189 -74.5q-138 0 -307 133q-29 19 -45 -6l-45 -72q-17 -23 8 -45q191 -157 395 -157q181 0 298.5 115 t117.5 284q0 59 -17.5 114t-42 96t-66.5 80.5t-76 65.5t-85.5 54.5t-81 42.5t-75.5 34q-46 21 -74.5 35t-63.5 38t-54 47t-32.5 57.5t-13.5 74.5q0 112 81 191.5t187 79.5q87 0 195 -60q25 -12 41 10l45 62q18 25 -6 43q-127 80 -271 80q-170 0 -292.5 -110.5t-131.5 -282.5 z" />
<glyph unicode="T" horiz-adv-x="1046" d="M82 1409v70q0 37 37 37h819q37 0 37 -37v-70q0 -37 -37 -37h-338v-1335q0 -37 -37 -37h-69q-37 0 -37 37v1335h-338q-37 0 -37 37z" />
<glyph unicode="U" horiz-adv-x="1189" d="M133 455q0 -127 62.5 -234.5t170 -170t234.5 -62.5t234.5 62.5t170 170t62.5 234.5v1024q0 37 -37 37h-69q-37 0 -37 -37v-1024q0 -133 -95 -228.5t-229 -95.5t-229 95.5t-95 228.5v1024q0 37 -36 37h-70q-37 0 -37 -37v-1024z" />
<glyph unicode="V" horiz-adv-x="1396" d="M104 1481q-3 9 -3 15q0 20 28 20h92q27 0 35 -25l449 -1227l446 1227q8 25 35 25h92q28 0 28 -20q0 -6 -3 -15l-535 -1456q-8 -25 -35 -25h-59q-27 0 -35 25z" />
<glyph unicode="W" horiz-adv-x="1878" d="M102 1481q-2 7 -2 13q0 22 27 22h86q29 0 35 -27l332 -1182l311 1180q6 20 29 20h49q22 0 28 -20l312 -1180l331 1182q6 27 35 27h86q27 0 27 -22q0 -6 -2 -13l-406 -1454q-6 -27 -34 -27h-56q-26 0 -33 27l-313 1179l-313 -1179q-7 -27 -33 -27h-55q-29 0 -35 27z" />
<glyph unicode="X" horiz-adv-x="1384" d="M112 10q-2 4 -1 8q0 8 6 19l491 723l-489 719q-10 17 -4.5 27t24.5 10h103q25 0 39 -21l417 -610l416 610q14 21 39 21h102q19 0 25 -10q2 -4 2 -8q0 -8 -6 -19l-490 -719l492 -723q6 -11 6 -19q0 -5 -2 -8q-6 -10 -25 -10h-104q-26 0 -39 20l-416 615l-417 -615 q-13 -20 -39 -20h-105q-19 0 -25 10z" />
<glyph unicode="Y" horiz-adv-x="1245" d="M115 1479q-6 12 -6 20q0 17 26 17h107q25 0 37 -21l348 -594l350 594q12 21 37 21h106q27 0 27 -17q0 -8 -6 -20l-443 -756v-686q0 -37 -36 -37h-68q-37 0 -37 37v686z" />
<glyph unicode="Z" horiz-adv-x="1275" d="M92 1419v60q0 37 37 37h1014q37 0 37 -37v-62q0 -21 -15 -45l-860 -1229h852q37 0 37 -37v-69q0 -37 -37 -37h-993q-37 0 -37 37v82q0 23 14 45l856 1218h-868q-37 0 -37 37z" />
<glyph unicode="[" horiz-adv-x="583" d="M133 -188q0 -37 37 -37h274q37 0 37 37v69q0 37 -37 37h-168v1536h168q37 0 37 37v70q0 36 -37 36h-274q-37 0 -37 -36v-1749z" />
<glyph unicode="\" horiz-adv-x="892" d="M98 1473l561 -1444q13 -29 41 -29h76q20 0 28.5 12t0.5 31l-559 1444q-13 29 -41 29h-78q-20 0 -28.5 -12t-0.5 -31z" />
<glyph unicode="]" horiz-adv-x="583" d="M102 -119v-69q0 -37 37 -37h275q37 0 37 37v1749q0 36 -37 36h-275q-37 0 -37 -36v-70q0 -37 37 -37h168v-1536h-168q-37 0 -37 -37z" />
<glyph unicode="^" horiz-adv-x="1300" d="M125 557q-19 -37 20 -37h105q25 0 37 21l364 628l367 -628q12 -21 37 -21h100q40 0 21 37l-447 754q-15 24 -43 24h-70q-28 0 -43 -24z" />
<glyph unicode="_" horiz-adv-x="1173" d="M82 -37v-61q0 -37 37 -37h936q37 0 37 37v61q0 37 -37 37h-936q-37 0 -37 -37z" />
<glyph unicode="`" horiz-adv-x="552" d="M-2 1434q-17 -33 14 -52l340 -180q32 -19 49 15l33 61q15 30 -16 49l-336 182q-15 9 -29 4t-22 -20z" />
<glyph unicode="a" horiz-adv-x="1282" d="M102 514q0 106 42 203.5t113 168t169.5 112.5t206.5 42q117 0 222.5 -49.5t178.5 -136.5v133q0 37 37 37h51q37 0 37 -37v-950q0 -37 -37 -37h-51q-37 0 -37 37v133q-73 -87 -178.5 -136.5t-222.5 -49.5q-144 0 -266.5 71t-193.5 193t-71 266zM248 514q0 -161 112.5 -274 t272.5 -113t272.5 113t112.5 274q0 158 -112.5 270.5t-272.5 112.5t-272.5 -112.5t-112.5 -270.5z" />
<glyph unicode="b" horiz-adv-x="1269" d="M123 37v1360q0 37 37 37h67q37 0 37 -37v-523q73 78 173 122t212 44q144 0 266 -70.5t192.5 -192t70.5 -265.5q0 -218 -155 -373t-374 -155q-117 0 -222 49.5t-179 134.5v-131q0 -37 -37 -37h-51q-37 0 -37 37zM264 512q0 -159 113 -271t272 -112q160 0 272.5 111.5 t112.5 271.5t-112.5 272.5t-272.5 112.5q-159 0 -272 -113t-113 -272z" />
<glyph unicode="c" horiz-adv-x="1093" d="M102 512q0 -144 71 -265.5t193 -192t265 -70.5q192 0 344 129q15 11 15 26q0 11 -9 25l-41 55q-23 29 -51 4q-116 -96 -258 -96q-158 0 -271.5 113.5t-113.5 271.5t113.5 271.5t271.5 113.5q142 0 258 -96q29 -26 51 6l41 55q9 13 9 25q0 15 -15 26q-150 127 -344 127 q-143 0 -265 -70.5t-193 -192t-71 -265.5z" />
<glyph unicode="d" horiz-adv-x="1269" d="M92 512q0 144 70.5 265.5t192.5 192t266 70.5q112 0 212 -44t173 -122v523q0 37 36 37h68q37 0 37 -37v-1360q0 -37 -37 -37h-51q-37 0 -37 37v131q-74 -85 -179 -134.5t-222 -49.5q-219 0 -374 155t-155 373zM236 512q0 -160 112.5 -271.5t272.5 -111.5q159 0 272 112 t113 271t-113 272t-272 113q-160 0 -272.5 -112.5t-112.5 -272.5z" />
<glyph unicode="e" horiz-adv-x="1224" d="M102 530q0 219 148 364.5t364 145.5q215 0 361 -149t158 -389q0 -37 -37 -37h-842q23 -149 128.5 -242.5t246.5 -93.5q167 0 311 133q12 12 26 11t25 -15l41 -51q22 -25 0 -51q-84 -87 -189.5 -129.5t-213.5 -42.5q-151 0 -273 76.5t-188 201t-66 268.5zM254 586h723 q-22 136 -125.5 226.5t-237.5 90.5q-130 0 -234 -86t-126 -231z" />
<glyph unicode="f" horiz-adv-x="692" d="M113 37v1063q0 147 98.5 240.5t234.5 93.5h127q37 0 37 -37v-68q0 -37 -37 -37h-127q-78 0 -135 -57t-57 -135v-76h326q13 0 21.5 -8.5t8.5 -22.5v-63q0 -14 -8.5 -22.5t-21.5 -8.5h-326v-862q0 -37 -37 -37h-67q-37 0 -37 37z" />
<glyph unicode="g" horiz-adv-x="1261" d="M82 512q0 143 71 264.5t193 192.5t266 71q117 0 221.5 -48.5t178.5 -135.5v131q0 37 37 37h53q37 0 37 -37v-831q0 -126 -28.5 -227.5t-75.5 -166.5t-110.5 -108.5t-129 -61.5t-136.5 -18q-117 0 -227 55q-33 14 -18 49l26 56q17 34 49 18q76 -39 162 -39 q160 0 254 114.5t94 328.5q-162 -172 -387 -172q-144 0 -266 71t-193 192.5t-71 264.5zM225 512q0 -158 113.5 -271.5t273.5 -113.5q158 0 270.5 113.5t112.5 271.5t-113 271.5t-270 113.5q-158 0 -272.5 -113.5t-114.5 -271.5z" />
<glyph unicode="h" horiz-adv-x="1073" d="M123 37v1360q0 37 37 37h71q37 0 37 -37v-471q124 114 295 114q181 0 309.5 -128t128.5 -310v-565q0 -37 -36 -37h-70q-37 0 -37 37v565q0 122 -87 208.5t-208 86.5q-123 0 -209 -86.5t-86 -208.5v-565q0 -37 -37 -37h-71q-37 0 -37 37z" />
<glyph unicode="i" horiz-adv-x="425" d="M123 1221q0 -40 28 -67.5t66 -27.5q43 0 69.5 27t26.5 68q0 38 -27 66t-69 28q-37 0 -65.5 -28.5t-28.5 -65.5zM145 37q0 -37 37 -37h72q37 0 37 37v950q0 37 -37 37h-72q-37 0 -37 -37v-950z" />
<glyph unicode="j" horiz-adv-x="542" d="M49 -336l37 -59q13 -20 30 -20q10 0 21 7q125 73 193.5 186.5t68.5 254.5v954q0 37 -37 37h-69q-37 0 -37 -37v-954q0 -183 -195 -318q-19 -13 -19 -30q0 -10 7 -21zM231 1219q0 -39 28.5 -66t68.5 -27q39 0 65.5 28.5t26.5 68.5q0 38 -26.5 66t-65.5 28q-41 0 -69 -29 t-28 -69z" />
<glyph unicode="k" horiz-adv-x="931" d="M123 37v1360q0 37 37 37h69q37 0 37 -37v-801l361 412q13 16 37 16h98q20 0 25 -11t-7 -26l-354 -401l397 -549q7 -10 7 -18q0 -4 -2 -8q-6 -11 -25 -11h-96q-27 0 -39 18l-332 471l-70 -79v-373q0 -37 -37 -37h-69q-37 0 -37 37z" />
<glyph unicode="l" horiz-adv-x="536" d="M123 315v1082q0 37 37 37h69q37 0 37 -37v-1082q0 -85 43.5 -128.5t110.5 -43.5h29q26 0 26 -37v-69q0 -37 -37 -37h-18q-138 0 -217.5 75.5t-79.5 239.5z" />
<glyph unicode="m" horiz-adv-x="1789" d="M123 37v950q0 37 37 37h55q37 0 37 -37v-86q43 61 122.5 100t176.5 39q110 0 203 -51t151 -139q58 88 152 139t205 51q175 0 300.5 -125t125.5 -301v-577q0 -37 -37 -37h-70q-37 0 -37 37v577q0 117 -82.5 201t-199.5 84q-118 0 -201.5 -84t-83.5 -201v-577 q0 -37 -37 -37h-68q-36 0 -36 37v577q0 117 -83.5 201t-201.5 84t-201.5 -84t-83.5 -201v-577q0 -37 -37 -37h-69q-37 0 -37 37z" />
<glyph unicode="n" horiz-adv-x="1081" d="M123 37v950q0 37 37 37h53q37 0 37 -37v-72q125 125 303 125q177 0 301.5 -124.5t124.5 -301.5v-577q0 -37 -37 -37h-70q-36 0 -36 37v577q0 117 -84 201t-201 84q-118 0 -201.5 -84t-83.5 -201v-577q0 -37 -37 -37h-69q-37 0 -37 37z" />
<glyph unicode="o" horiz-adv-x="1241" d="M92 512q0 143 71 264.5t193 192.5t265 71t264.5 -71t192.5 -192.5t71 -264.5t-71 -264.5t-192.5 -192.5t-264.5 -71t-265 71t-193 192.5t-71 264.5zM236 512q0 -160 112.5 -272.5t272.5 -112.5t271.5 112.5t111.5 272.5t-111.5 271.5t-271.5 111.5t-272.5 -111.5 t-112.5 -271.5z" />
<glyph unicode="p" horiz-adv-x="1269" d="M123 -373v1360q0 37 37 37h51q37 0 37 -37v-131q74 85 179 134.5t222 49.5q219 0 374 -155t155 -373q0 -144 -70.5 -265.5t-192.5 -192t-266 -70.5q-112 0 -212 44t-173 122v-523q0 -37 -37 -37h-67q-37 0 -37 37zM264 512q0 -159 113 -272t272 -113q160 0 272.5 112.5 t112.5 272.5t-112.5 271.5t-272.5 111.5q-159 0 -272 -112t-113 -271z" />
<glyph unicode="q" horiz-adv-x="1269" d="M92 512q0 218 155 373t374 155q117 0 222 -49.5t179 -134.5v131q0 37 37 37h51q37 0 37 -37v-1360q0 -37 -37 -37h-68q-36 0 -36 37v523q-73 -78 -173 -122t-212 -44q-144 0 -266 70.5t-192.5 192t-70.5 265.5zM236 512q0 -160 112.5 -272.5t272.5 -112.5q159 0 272 113 t113 272t-113 271t-272 112q-160 0 -272.5 -111.5t-112.5 -271.5z" />
<glyph unicode="r" horiz-adv-x="727" d="M123 37v950q0 37 37 37h53q37 0 37 -37v-67q39 48 111 76t159 28h98q37 0 37 -37v-63q0 -37 -37 -37h-69q-122 0 -202.5 -70t-80.5 -188v-592q0 -37 -37 -37h-69q-37 0 -37 37z" />
<glyph unicode="s" horiz-adv-x="835" d="M88 768q0 -48 18 -89t42 -67t66 -51t69.5 -37t74.5 -30q125 -48 180.5 -93t55.5 -108q0 -65 -50.5 -114.5t-144.5 -49.5q-107 0 -225 59q-35 17 -49 -16l-29 -61q-15 -34 17 -50q154 -77 297 -77q140 0 236.5 87t96.5 212q0 116 -88 201t-225 132q-40 14 -61 22t-53 24 t-48.5 30.5t-29.5 37t-13 48.5q0 62 59.5 101t141.5 39q89 0 182 -52q33 -20 51 11l27 45q18 31 -12 49q-120 69 -252 69q-146 0 -240 -75.5t-94 -196.5z" />
<glyph unicode="t" horiz-adv-x="696" d="M123 334v979q0 37 37 37h69q37 0 37 -37v-289h328q14 0 22.5 -9t8.5 -22v-65q0 -14 -8.5 -22.5t-22.5 -8.5h-328v-563q0 -78 56.5 -134.5t134.5 -56.5h131q37 0 37 -37v-69q0 -37 -37 -37h-131q-143 0 -238.5 95t-95.5 239z" />
<glyph unicode="u" horiz-adv-x="1077" d="M123 410q0 -177 124.5 -301.5t301.5 -124.5q175 0 300.5 125t125.5 301v577q0 37 -37 37h-70q-37 0 -37 -37v-577q0 -117 -82.5 -201t-199.5 -84q-118 0 -201.5 84t-83.5 201v577q0 37 -37 37h-67q-37 0 -37 -37v-577z" />
<glyph unicode="v" horiz-adv-x="1095" d="M94 989l393 -964q9 -25 37 -25h43q28 0 37 25l395 964q3 9 3 15q0 20 -27 20h-88q-28 0 -37 -25l-303 -772l-301 772q-9 25 -37 25h-90q-28 0 -28 -20q0 -6 3 -15z" />
<glyph unicode="w" horiz-adv-x="1730" d="M84 989q-3 9 -3 15q0 20 28 20h90q26 0 34 -25l293 -796l285 768q6 20 29 20h51q23 0 29 -20l286 -768l293 796q8 25 35 25h86q28 0 28 -20q0 -6 -3 -15l-371 -964q-9 -25 -37 -25h-49q-26 0 -35 25l-287 759l-286 -759q-9 -25 -35 -25h-51q-28 0 -37 25z" />
<glyph unicode="x" horiz-adv-x="1142" d="M116 11l-2 6q0 9 9 20l377 475l-377 475q-9 11 -9 20q0 3 2 6q4 11 23 11h109q24 0 37 -18l290 -365l291 365q13 18 37 18h109q20 0 24 -11q1 -3 1 -6q0 -9 -9 -20l-377 -475l379 -475q8 -10 8 -19q0 -4 -2 -7q-6 -11 -24 -11h-107q-22 0 -37 18l-293 365l-290 -365 q-13 -18 -37 -18h-109q-19 0 -23 11z" />
<glyph unicode="y" horiz-adv-x="1124" d="M86 989q-3 9 -3 15q0 20 28 20h88q28 0 37 -25l311 -759l309 759q9 25 37 25h90q28 0 28 -20q0 -6 -3 -15l-437 -1061q-102 -245 -344 -342q-8 -3 -16 -3q-21 0 -31 26l-24 61q-12 35 20 49q111 45 177 124t116 210z" />
<glyph unicode="z" horiz-adv-x="989" d="M92 932v61q0 13 9 22t22 9h729q37 0 37 -37v-63q0 -27 -17 -47l-612 -734h610q37 0 37 -37v-69q0 -37 -37 -37h-737q-37 0 -37 37v80q0 27 17 47l620 737h-610q-13 0 -22 8.5t-9 22.5z" />
<glyph unicode="{" horiz-adv-x="819" d="M102 670v73q0 37 37 37h23q73 0 126.5 53.5t53.5 127.5v333q0 135 93.5 229.5t228.5 94.5h36q37 0 37 -37v-70q0 -36 -37 -36h-36q-74 0 -127.5 -53.5t-53.5 -127.5v-333q0 -74 -32.5 -140.5t-88.5 -113.5q55 -44 88 -111.5t33 -142.5v-334q0 -73 53.5 -126.5 t127.5 -53.5h36q37 0 37 -37v-70q0 -37 -37 -37h-36q-134 0 -228 95.5t-94 228.5v334q0 76 -53 128t-127 52h-23q-37 0 -37 37z" />
<glyph unicode="|" horiz-adv-x="407" d="M133 -352q0 -37 37 -37h68q36 0 36 37v1831q0 37 -36 37h-68q-37 0 -37 -37v-1831z" />
<glyph unicode="}" horiz-adv-x="819" d="M82 -98q0 37 37 37h37q74 0 127 53.5t53 126.5v334q0 75 33 142.5t88 111.5q-56 47 -88.5 113.5t-32.5 140.5v333q0 74 -53.5 127.5t-126.5 53.5h-37q-37 0 -37 36v70q0 37 37 37h37q135 0 228 -94.5t93 -229.5v-333q0 -74 53.5 -127.5t126.5 -53.5h23q37 0 37 -37v-73 q0 -37 -37 -37h-23q-74 0 -127 -52t-53 -128v-334q0 -133 -93.5 -228.5t-227.5 -95.5h-37q-37 0 -37 37v70z" />
<glyph unicode="~" horiz-adv-x="1728" d="M131 381q-9 -31 25 -45l86 -33q35 -12 47 21q62 154 155 208q43 24 92.5 26.5t101.5 -16t92 -39t91 -52.5q46 -29 83.5 -49t91.5 -42t101.5 -30.5t105.5 -5.5t112 24q199 77 289 346q13 32 -21 45l-92 35q-36 12 -47 -20q-82 -196 -189 -244q-30 -13 -64 -15t-65 4.5 t-69 21.5t-68.5 31.5t-68.5 39.5q-53 32 -89 51.5t-97.5 45t-112.5 33.5t-116.5 2t-127.5 -34q-186 -83 -246 -309z" />
<glyph unicode="&#xa1;" horiz-adv-x="413" d="M113 1417q0 41 28 70t66 29q37 0 65.5 -29t28.5 -70q0 -40 -28 -65t-66 -25q-39 0 -66.5 25t-27.5 65zM135 37v1151q0 37 37 37h68q36 0 36 -37v-1151q0 -37 -36 -37h-68q-37 0 -37 37z" />
<glyph unicode="&#xa2;" horiz-adv-x="1093" d="M102 512q0 195 125.5 341t313.5 179v174q0 37 37 37h69q37 0 37 -37v-168q165 -18 291 -125q26 -20 6 -51l-41 -55q-22 -32 -51 -6q-94 76 -205 92v-762q111 16 205 92q28 25 51 -4l41 -55q20 -31 -4 -49q-127 -111 -293 -129v-189q0 -37 -37 -37h-69q-37 0 -37 37v195 q-188 33 -313.5 179t-125.5 341zM246 512q0 -134 84 -239t211 -136v750q-127 -31 -211 -136t-84 -239z" />
<glyph unicode="&#xa3;" horiz-adv-x="1253" d="M113 690v68q0 37 37 37h133q-74 96 -107 166t-33 155q0 169 118.5 289.5t301.5 120.5q128 0 238 -65t188 -187q21 -30 -10 -49l-55 -35q-30 -20 -52 12q-136 185 -317 180q-114 -3 -190 -79.5t-76 -186.5q0 -45 17.5 -89.5t37 -73t69.5 -93.5q10 -13 15 -20l33 -45h454 q37 0 37 -37v-68q0 -37 -37 -37h-368q33 -70 33 -159v-351h206q98 0 166 59.5t68 151.5v70q0 37 37 37h67q37 0 37 -37v-70q0 -152 -107.5 -253t-267.5 -101h-628q-37 0 -37 37v69q0 37 37 37h278v346q0 88 -47 164h-239q-37 0 -37 37z" />
<glyph unicode="&#xa4;" horiz-adv-x="1243" d="M127 159.5q0 14.5 12 26.5l78 78q-80 122 -80 268q0 138 72 256l-70 72q-12 12 -12 26.5t12 26.5l76 74q12 12 26.5 12t26.5 -12l64 -63q130 100 297 100q163 0 295 -98l61 61q12 12 26.5 12t26.5 -12l76 -74q26 -27 0 -53l-67 -69q73 -115 73 -259q0 -145 -82 -270 l76 -76q26 -26 0 -53l-76 -74q-12 -12 -26.5 -12t-26.5 12l-72 72q-126 -90 -284 -90t-287 92l-74 -74q-12 -12 -26.5 -12t-26.5 12l-76 74q-12 12 -12 26.5zM295 532q0 -139 97 -237t235 -98q137 0 235.5 98.5t98.5 236.5q0 136 -98.5 234t-235.5 98q-138 0 -235 -97.5 t-97 -234.5z" />
<glyph unicode="&#xa5;" horiz-adv-x="1245" d="M115 1479q-19 37 20 37h107q25 0 37 -21l348 -594l350 594q12 21 37 21h106q40 0 21 -37l-359 -613h262q37 0 37 -37v-69q0 -37 -37 -37h-346v-150h346q37 0 37 -36v-70q0 -37 -37 -37h-346v-393q0 -37 -36 -37h-68q-37 0 -37 37v393h-344q-37 0 -37 37v70q0 36 37 36 h344v150h-344q-37 0 -37 37v69q0 37 37 37h260z" />
<glyph unicode="&#xa7;" horiz-adv-x="1005" d="M119 -260l37 72q19 36 51 10q140 -96 262 -96q114 0 185 59.5t71 159.5q0 48 -19.5 87.5t-53 67t-76.5 52t-90.5 46t-95.5 45t-91 54t-76.5 67.5t-53 90.5t-19.5 118.5q0 124 64 207.5t155 114.5q-71 44 -108.5 116t-37.5 154q0 153 113.5 261t273.5 108q126 0 236 -72 q30 -20 10 -51l-37 -57q-18 -31 -51 -11q-79 48 -156 48q-94 0 -165.5 -61.5t-71.5 -162.5q0 -47 23 -85t61 -62.5t86.5 -49.5t98.5 -46t98.5 -52.5t86.5 -67t61 -91.5t23 -125q0 -228 -202 -342q78 -55 120.5 -138.5t42.5 -175.5q0 -158 -115 -261t-280 -103 q-180 0 -348 121q-28 19 -12 51zM297 580q0 -55 24 -99.5t67.5 -74t83 -47t91.5 -33.5q87 24 144 99t57 157q0 93 -68.5 151t-165.5 58q-98 0 -165.5 -59.5t-67.5 -151.5z" />
<glyph unicode="&#xa8;" horiz-adv-x="604" d="M102 1235q0 -28 20.5 -48t49.5 -20t49.5 20t20.5 48q0 29 -20.5 49.5t-49.5 20.5t-49.5 -20.5t-20.5 -49.5zM365 1235q0 -28 20 -48t49 -20q28 0 48 20t20 48q0 29 -20 49.5t-48 20.5q-29 0 -49 -20.5t-20 -49.5z" />
<glyph unicode="&#xa9;" horiz-adv-x="1744" d="M102 760q0 156 61.5 298.5t165 245t247 163.5t301.5 61q155 0 297 -61t244.5 -163.5t163 -245t60.5 -298.5q0 -158 -60.5 -301t-163 -246t-244 -164t-297.5 -61q-158 0 -301.5 61t-247 164t-165 246t-61.5 301zM248 760q0 -128 49.5 -244.5t134 -200t201 -133 t244.5 -49.5q127 0 242 49.5t198.5 133t132.5 200t49 244.5q0 127 -49 242t-132.5 198.5t-198.5 132.5t-242 49q-128 0 -244.5 -49t-201 -132.5t-134 -198.5t-49.5 -242zM492 766q0 163 114 277t275 114q152 0 260 -102q19 -16 2 -39l-58 -70q-18 -21 -41 -2q-74 62 -161 62 q-99 0 -169.5 -70.5t-70.5 -167.5t70.5 -168.5t169.5 -71.5q93 0 164 66q23 19 40 -4l58 -70q16 -23 -2 -41q-123 -104 -262 -104q-161 0 -275 114t-114 277z" />
<glyph unicode="&#xab;" horiz-adv-x="997" d="M129 489l365 -366q26 -29 53 -2l49 47q26 26 0 53l-297 295l297 297q24 25 -2 51l-47 45q-25 25 -53 -2l-365 -364q-27 -27 0 -54zM412 489l364 -366q26 -29 53 -2l50 47q27 26 0 53l-297 295l297 297q25 25 -2 51l-48 45q-25 25 -53 -2l-364 -364q-27 -27 0 -54z" />
<glyph unicode="&#xac;" horiz-adv-x="1245" d="M82 727q0 -37 37 -37h864v-334q0 -37 37 -37h65q37 0 37 37v437q0 36 -37 36h-966q-37 0 -37 -36v-66z" />
<glyph unicode="&#xad;" horiz-adv-x="774" d="M113 575q0 -36 37 -36h475q37 0 37 36v84q0 37 -37 37h-475q-37 0 -37 -37v-84z" />
<glyph unicode="&#xae;" horiz-adv-x="1744" d="M102 760q0 156 61.5 298.5t165 245t247 163.5t301.5 61q155 0 297 -61t244.5 -163.5t163 -245t60.5 -298.5q0 -158 -60.5 -301t-163 -246t-244 -164t-297.5 -61q-158 0 -301.5 61t-247 164t-165 246t-61.5 301zM248 760q0 -128 49.5 -244.5t134 -200t201 -133 t244.5 -49.5q127 0 242 49.5t198.5 133t132.5 200t49 244.5q0 127 -49 242t-132.5 198.5t-198.5 132.5t-242 49q-128 0 -244.5 -49t-201 -132.5t-134 -198.5t-49.5 -242zM641 416v727q0 28 29 28h213q98 0 166.5 -69t68.5 -166q0 -73 -40 -131.5t-105 -85.5l178 -303 q7 -14 1.5 -21.5t-19.5 -7.5h-103q-23 0 -31 16l-170 297h-49v-284q0 -29 -28 -29h-82q-29 0 -29 29zM780 840h103q40 0 68 27.5t28 68.5q0 40 -28 68t-68 28h-103v-192z" />
<glyph unicode="&#xaf;" horiz-adv-x="753" d="M102 1204q0 -37 37 -37h475q37 0 37 37v68q0 37 -37 37h-475q-37 0 -37 -37v-68z" />
<glyph unicode="&#xb0;" horiz-adv-x="788" d="M102 1225q0 121 85.5 206t207.5 85q121 0 206 -85t85 -206q0 -123 -84.5 -208t-206.5 -85t-207.5 85t-85.5 208zM246 1225q0 -62 44 -107t105 -45t105.5 45t44.5 107q0 60 -44.5 104.5t-105.5 44.5t-105 -44.5t-44 -104.5z" />
<glyph unicode="&#xb1;" horiz-adv-x="1148" d="M92 37q0 -37 37 -37h901q37 0 37 37v67q0 37 -37 37h-901q-37 0 -37 -37v-67zM92 752v67q0 37 37 37h379v318q0 36 37 36h65q37 0 37 -36v-318h383q37 0 37 -37v-67q0 -37 -37 -37h-383v-336q0 -37 -37 -37h-65q-37 0 -37 37v336h-379q-37 0 -37 37z" />
<glyph unicode="&#xb2;" horiz-adv-x="768" d="M132 1385q-2 11 7 22q51 64 125 92.5t150 17t135 -60.5q61 -51 85 -126t9.5 -151.5t-63.5 -134.5l-277 -325h334q29 0 29 -29v-69q0 -29 -29 -29h-461q-29 0 -29 29v77q0 21 13 37l325 389q47 53 43.5 128t-59.5 118q-48 40 -119.5 32t-122.5 -65q-18 -21 -41 -4l-41 33 q-11 8 -13 19z" />
<glyph unicode="&#xb3;" horiz-adv-x="778" d="M100 805q-4 12 1.5 22t17.5 15l57 20q24 9 37 -16q23 -55 65 -86t95 -31q68 0 113.5 45.5t45.5 112.5q0 66 -47 115t-116 49h-13q-10 0 -17 6.5t-7 17.5v66q0 11 7 17.5t17 6.5h15q47 0 80.5 34t33.5 83q0 46 -33.5 80.5t-80.5 34.5q-57 0 -97 -49q-17 -24 -38 -9l-48 31 q-22 16 -8 39q31 47 82.5 77t112.5 30q98 0 165.5 -69.5t67.5 -166.5q0 -102 -73 -168q56 -37 88 -97t32 -130q0 -116 -82 -199.5t-200 -83.5q-92 0 -167.5 55t-105.5 148z" />
<glyph unicode="&#xb4;" horiz-adv-x="552" d="M119 1278l33 -61q17 -34 49 -15l340 180q31 19 14 52l-33 59q-17 34 -51 16l-336 -182q-31 -19 -16 -49z" />
<glyph unicode="&#xb6;" horiz-adv-x="1050" d="M82 1061q0 188 129 321.5t313 133.5h357q37 0 37 -37v-1686q0 -37 -37 -37h-70q-37 0 -37 37v1583h-119v-1583q0 -37 -37 -37h-69q-37 0 -37 37v815q-185 15 -307.5 143.5t-122.5 309.5z" />
<glyph unicode="&#xb8;" horiz-adv-x="636" d="M104 -315q-1 15 7.5 23.5t23.5 8.5h60q23 0 32 -28t34 -45t56 -17q40 0 67.5 26t27.5 64q0 39 -28 67t-67 28h-30q-14 0 -22.5 8.5t-8.5 21.5v181h125v-97q67 -24 110.5 -81t43.5 -128q0 -90 -63.5 -150.5t-154.5 -60.5q-82 0 -141.5 50.5t-71.5 128.5z" />
<glyph unicode="&#xb9;" horiz-adv-x="487" d="M72 1434v57q0 11 7 18t17 7h230q28 0 28 -29v-856q0 -29 -28 -29h-68q-29 0 -29 29v778h-133q-10 0 -17 7t-7 18z" />
<glyph unicode="&#xbb;" horiz-adv-x="997" d="M119 168l49 -47q27 -27 53 2l365 366q12 12 12 27t-12 27l-367 366q-25 25 -51 0l-47 -45q-27 -26 -2 -51l297 -297l-297 -295q-27 -27 0 -53zM401 168l50 -47q27 -27 53 2l364 366q12 12 12 27t-12 27l-366 366q-26 25 -51 0l-48 -45q-27 -26 -2 -51l297 -297l-297 -295 q-27 -27 0 -53z" />
<glyph unicode="&#xbc;" horiz-adv-x="1533" d="M133 1434v57q0 11 7.5 18t17.5 7h229q29 0 29 -29v-856q0 -29 -29 -29h-68q-28 0 -28 29v778h-133q-10 0 -17.5 7.5t-7.5 17.5zM227 13q-7 13 4 32l891 1446q14 25 43 25h88q22 0 29 -13.5t-4 -32.5l-891 -1445q-14 -25 -43 -25h-88q-22 0 -29 13zM762 205v67q0 22 12 37 l414 586q12 18 35 18h45q28 0 28 -28v-592h76q29 0 29 -29v-59q0 -29 -29 -29h-76v-147q0 -29 -28 -29h-66q-28 0 -28 29v147h-383q-29 0 -29 29zM901 293h273v385z" />
<glyph unicode="&#xbd;" horiz-adv-x="1718" d="M133 1434v57q0 11 7.5 18t17.5 7h229q29 0 29 -29v-856q0 -29 -29 -29h-68q-28 0 -28 29v778h-133q-10 0 -17.5 7.5t-7.5 17.5zM227 13q-7 13 4 32l891 1446q14 25 43 25h88q22 0 29 -13.5t-4 -32.5l-891 -1445q-14 -25 -43 -25h-88q-22 0 -29 13zM1031 793q-2 11 7 22 q78 96 197.5 110t212.5 -61q92 -76 99 -199.5t-68 -211.5l-277 -326h334q29 0 29 -29v-69q0 -29 -29 -29h-461q-28 0 -28 29v77q0 22 12 37l325 389q47 54 41 126t-61 116q-48 40 -115.5 32t-118.5 -65q-19 -22 -40 -4l-46 37q-11 8 -13 19z" />
<glyph unicode="&#xbe;" horiz-adv-x="1667" d="M100 805q-4 12 1.5 22t17.5 15l57 20q24 9 37 -16q23 -55 65 -86t95 -31q68 0 113.5 45.5t45.5 112.5q0 66 -47 115t-116 49h-13q-10 0 -17 6.5t-7 17.5v66q0 11 7 17.5t17 6.5h15q47 0 80.5 34t33.5 83q0 46 -33.5 80.5t-80.5 34.5q-57 0 -97 -49q-17 -24 -38 -9l-48 31 q-22 16 -8 39q31 47 82.5 77t112.5 30q98 0 165.5 -69.5t67.5 -166.5q0 -102 -73 -168q56 -37 88 -97t32 -130q0 -116 -82 -199.5t-200 -83.5q-92 0 -167.5 55t-105.5 148zM371 13q-7 13 4 32l891 1446q14 25 43 25h88q21 0 28 -13.5t-4 -32.5l-891 -1445q-14 -25 -43 -25 h-88q-21 0 -28 13zM905 205v67q0 21 13 37l413 586q12 18 35 18h45q29 0 29 -28v-592h76q28 0 28 -29v-59q0 -29 -28 -29h-76v-147q0 -29 -29 -29h-65q-29 0 -29 29v147h-383q-29 0 -29 29zM1044 293h273v385z" />
<glyph unicode="&#xbf;" horiz-adv-x="1054" d="M102 436q0 -188 133 -321t320 -133q127 0 235.5 65.5t165.5 175.5q17 32 -18 49l-64 29q-29 15 -49 -18q-36 -65 -94.5 -104t-122 -48t-129 7.5t-117 54t-84 100t-32.5 137.5q0 133 90.5 224t218.5 91h37q37 0 37 37v406q0 37 -37 37h-70q-37 0 -37 -37v-303 q-164 -28 -273.5 -155t-109.5 -294zM453 1419q0 -38 29 -66t67 -28t66 28t28 66q0 40 -28 68.5t-66 28.5q-39 0 -67.5 -29t-28.5 -68z" />
<glyph unicode="&#xc0;" horiz-adv-x="1497" d="M104 35l580 1456q9 25 37 25h65q28 0 37 -25l580 -1456q12 -35 -25 -35h-92q-28 0 -37 25l-110 276h-770l-111 -276q-9 -25 -37 -25h-92q-37 0 -25 35zM424 442h661l-331 832zM467 1896q-17 -32 14 -51l340 -180q32 -19 49 14l33 62q15 30 -16 49l-336 182q-15 9 -29 4 t-22 -20z" />
<glyph unicode="&#xc1;" horiz-adv-x="1497" d="M104 35l580 1456q9 25 37 25h65q28 0 37 -25l580 -1456q12 -35 -25 -35h-92q-28 0 -37 25l-110 276h-770l-111 -276q-9 -25 -37 -25h-92q-37 0 -25 35zM424 442h661l-331 832zM586 1741l32 -62q8 -15 21.5 -19t28.5 5l340 180q31 19 14 51l-33 60q-17 34 -51 16 l-336 -182q-31 -19 -16 -49z" />
<glyph unicode="&#xc2;" horiz-adv-x="1497" d="M104 35l580 1456q9 25 37 25h65q28 0 37 -25l580 -1456q12 -35 -25 -35h-92q-28 0 -37 25l-110 276h-770l-111 -276q-9 -25 -37 -25h-92q-37 0 -25 35zM424 442h661l-331 832zM454 1644q6 -14 29 -14h97q29 0 45 21l123 149l131 -149q18 -21 45 -21h96q23 0 29 14t-9 31 l-227 246q-13 16 -37 16h-49q-24 0 -37 -16l-227 -246q-15 -17 -9 -31z" />
<glyph unicode="&#xc3;" horiz-adv-x="1497" d="M104 35l580 1456q9 25 37 25h65q28 0 37 -25l580 -1456q12 -35 -25 -35h-92q-28 0 -37 25l-110 276h-770l-111 -276q-9 -25 -37 -25h-92q-37 0 -25 35zM424 442h661l-331 832zM445.5 1713q2.5 -14 17.5 -23l59 -39q26 -17 51 8q27 27 62 27q21 0 82.5 -28t113.5 -28 q56 0 108.5 25t92.5 71q27 31 -8 52l-59 39q-29 19 -52 -11q-36 -45 -88 -45q-31 0 -99 29t-108 29q-44 0 -88.5 -22t-74.5 -56q-12 -14 -9.5 -28z" />
<glyph unicode="&#xc4;" horiz-adv-x="1497" d="M104 35l580 1456q9 25 37 25h65q28 0 37 -25l580 -1456q12 -35 -25 -35h-92q-28 0 -37 25l-110 276h-770l-111 -276q-9 -25 -37 -25h-92q-37 0 -25 35zM424 442h661l-331 832zM553 1698q0 -28 20.5 -48t49.5 -20t49 20t20 48q0 29 -20 49t-49 20t-49.5 -20t-20.5 -49z M815 1698q0 -28 20.5 -48t49.5 -20q28 0 47.5 20t19.5 48q0 29 -19.5 49t-47.5 20q-29 0 -49.5 -20t-20.5 -49z" />
<glyph unicode="&#xc5;" horiz-adv-x="1497" d="M104 35l580 1456q9 25 37 25h65q28 0 37 -25l580 -1456q12 -35 -25 -35h-92q-28 0 -37 25l-110 276h-770l-111 -276q-9 -25 -37 -25h-92q-37 0 -25 35zM424 442h661l-331 832zM553 1831q0 83 59 141t142 58t141.5 -58t58.5 -141t-58.5 -142t-141.5 -59t-142 59t-59 142z M655 1831q0 -41 29.5 -69.5t69.5 -28.5t69 28.5t29 69.5q0 40 -29 68t-69 28t-69.5 -28.5t-29.5 -67.5z" />
<glyph unicode="&#xc6;" horiz-adv-x="1642" d="M104 11q-6 11 0 26l641 1456q9 23 35 23h723q37 0 37 -37v-70q0 -37 -37 -37h-549v-551h519q13 0 21.5 -8.5t8.5 -21.5v-66q0 -14 -8.5 -22.5t-21.5 -8.5h-519v-551h549q37 0 37 -37v-69q0 -37 -37 -37h-653q-37 0 -37 37v266h-434l-119 -280q-9 -23 -35 -23h-98 q-17 0 -23 11zM440 444h373v842z" />
<glyph unicode="&#xc7;" horiz-adv-x="1495" d="M92 758q0 156 61.5 298.5t164 246t244 164.5t294.5 61q269 0 498 -182q27 -21 6 -52l-39 -51q-22 -32 -51 -6q-191 147 -410 147q-125 0 -240.5 -49.5t-199.5 -133.5t-134 -200t-50 -243q0 -170 84 -314.5t228 -228.5t312 -84q222 0 410 145q27 24 51 -6l41 -55 q20 -29 -8 -51q-218 -173 -477 -176v-62q67 -24 110 -81t43 -128q0 -90 -63 -150.5t-154 -60.5q-82 0 -141.5 50.5t-71.5 128.5q-1 15 7.5 23.5t23.5 8.5h59q24 0 33 -28t34 -45t56 -17q40 0 67 26t27 64q0 39 -27.5 67t-66.5 28h-31q-14 0 -22 8t-8 22v154 q-185 27 -336 134.5t-237.5 273t-86.5 354.5z" />
<glyph unicode="&#xc8;" horiz-adv-x="1015" d="M133 37v1442q0 37 37 37h696q37 0 37 -37v-70q0 -37 -37 -37h-590v-549h555q14 0 22.5 -8.5t8.5 -21.5v-66q0 -13 -9 -22t-22 -9h-555v-553h590q37 0 37 -37v-69q0 -37 -37 -37h-696q-37 0 -37 37zM242 1896q-17 -32 14 -51l340 -180q32 -19 49 14l33 62q15 30 -16 49 l-336 182q-15 9 -29.5 4t-22.5 -20z" />
<glyph unicode="&#xc9;" horiz-adv-x="1015" d="M133 37v1442q0 37 37 37h696q37 0 37 -37v-70q0 -37 -37 -37h-590v-549h555q14 0 22.5 -8.5t8.5 -21.5v-66q0 -13 -9 -22t-22 -9h-555v-553h590q37 0 37 -37v-69q0 -37 -37 -37h-696q-37 0 -37 37zM360 1741l33 -62q17 -33 49 -14l340 180q32 19 15 51l-33 60 q-17 34 -51 16l-336 -182q-32 -19 -17 -49z" />
<glyph unicode="&#xca;" horiz-adv-x="1015" d="M133 37v1442q0 37 37 37h696q37 0 37 -37v-70q0 -37 -37 -37h-590v-549h555q14 0 22.5 -8.5t8.5 -21.5v-66q0 -13 -9 -22t-22 -9h-555v-553h590q37 0 37 -37v-69q0 -37 -37 -37h-696q-37 0 -37 37zM229 1644q6 -14 29 -14h96q29 0 45 21l123 149l131 -149q18 -21 45 -21 h97q23 0 29 14t-9 31l-227 246q-13 16 -37 16h-49q-24 0 -37 -16l-227 -246q-15 -17 -9 -31z" />
<glyph unicode="&#xcb;" horiz-adv-x="1015" d="M133 37v1442q0 37 37 37h696q37 0 37 -37v-70q0 -37 -37 -37h-590v-549h555q14 0 22.5 -8.5t8.5 -21.5v-66q0 -13 -9 -22t-22 -9h-555v-553h590q37 0 37 -37v-69q0 -37 -37 -37h-696q-37 0 -37 37zM328 1698q0 -28 20 -48t49 -20t49.5 20t20.5 48q0 29 -20.5 49t-49.5 20 t-49 -20t-20 -49zM590 1698q0 -28 20 -48t49 -20q28 0 48 20t20 48q0 29 -20 49t-48 20q-29 0 -49 -20t-20 -49z" />
<glyph unicode="&#xcc;" horiz-adv-x="397" d="M-84 1880q-17 -32 14 -51l340 -180q32 -19 49 14l33 61q16 31 -16 50l-336 182q-15 9 -29 3.5t-22 -20.5zM133 37q0 -37 37 -37h68q36 0 36 37v1442q0 37 -36 37h-68q-37 0 -37 -37v-1442z" />
<glyph unicode="&#xcd;" horiz-adv-x="397" d="M35 1724l33 -61q17 -33 49 -14l340 180q31 19 14 51l-33 59q-17 35 -51 17l-336 -182q-32 -19 -16 -50zM133 37q0 -37 37 -37h68q36 0 36 37v1442q0 37 -36 37h-68q-37 0 -37 -37v-1442z" />
<glyph unicode="&#xce;" horiz-adv-x="397" d="M-97 1628q6 -14 29 -14h97q30 0 45 20l123 150l131 -150q17 -20 45 -20h96q23 0 29 14t-9 31l-227 246q-13 16 -37 16h-49q-24 0 -37 -16l-227 -246q-15 -17 -9 -31zM133 37q0 -37 37 -37h68q36 0 36 37v1442q0 37 -36 37h-68q-37 0 -37 -37v-1442z" />
<glyph unicode="&#xcf;" horiz-adv-x="397" d="M2 1681q0 -28 20.5 -47.5t49.5 -19.5t49 19.5t20 47.5q0 29 -20 49.5t-49 20.5t-49.5 -20.5t-20.5 -49.5zM133 37q0 -37 37 -37h68q36 0 36 37v1442q0 37 -36 37h-68q-37 0 -37 -37v-1442zM264 1681q0 -28 20.5 -47.5t49.5 -19.5q28 0 47.5 19.5t19.5 47.5 q0 29 -19.5 49.5t-47.5 20.5q-29 0 -49.5 -20.5t-20.5 -49.5z" />
<glyph unicode="&#xd0;" horiz-adv-x="1439" d="M133 731v82q0 13 8.5 22t22.5 9h51v635q0 37 37 37h338q154 0 294.5 -60t242 -161.5t161.5 -242t60 -294.5t-60 -294.5t-161.5 -242t-242 -161.5t-294.5 -60h-338q-37 0 -37 37v663h-51q-14 0 -22.5 9t-8.5 22zM358 143h232q166 0 307.5 82.5t224 224.5t82.5 308 t-82.5 307.5t-224 224t-307.5 82.5h-232v-528h52q13 0 21.5 -8.5t8.5 -22.5v-82q0 -14 -8.5 -22.5t-21.5 -8.5h-52v-557z" />
<glyph unicode="&#xd1;" horiz-adv-x="1394" d="M133 37v1442q0 37 37 37h49q26 0 39 -19l870 -1235v1217q0 37 37 37h70q37 0 37 -37v-1442q0 -37 -37 -37h-49q-27 0 -39 18l-871 1235v-1216q0 -37 -36 -37h-70q-37 0 -37 37zM373.5 1713q2.5 -14 17.5 -23l60 -39q26 -17 51 8q27 27 61 27q21 0 83 -28t114 -28 q56 0 108.5 25t92.5 71q27 30 -9 52l-59 39q-28 19 -51 -11q-36 -45 -88 -45q-32 0 -99 29t-108 29q-44 0 -89 -22t-75 -56q-12 -14 -9.5 -28z" />
<glyph unicode="&#xd2;" d="M102 760q0 209 103.5 386t281.5 280.5t387 103.5q156 0 299 -61t246 -164.5t164.5 -246t61.5 -298.5q0 -157 -61.5 -300t-164.5 -246.5t-246 -164.5t-299 -61q-157 0 -300 61t-246.5 164.5t-164.5 246.5t-61 300zM246 760q0 -127 50 -243.5t134 -201t200.5 -134.5 t243.5 -50q169 0 313.5 84.5t229 229.5t84.5 315q0 169 -84.5 313.5t-229 228.5t-313.5 84q-127 0 -243.5 -50t-200.5 -134t-134 -199.5t-50 -242.5zM582 1896q-17 -32 14 -51l340 -180q32 -19 49 14l33 62q15 30 -17 49l-335 182q-15 9 -29.5 4t-22.5 -20z" />
<glyph unicode="&#xd3;" d="M102 760q0 209 103.5 386t281.5 280.5t387 103.5q156 0 299 -61t246 -164.5t164.5 -246t61.5 -298.5q0 -157 -61.5 -300t-164.5 -246.5t-246 -164.5t-299 -61q-157 0 -300 61t-246.5 164.5t-164.5 246.5t-61 300zM246 760q0 -127 50 -243.5t134 -201t200.5 -134.5 t243.5 -50q169 0 313.5 84.5t229 229.5t84.5 315q0 169 -84.5 313.5t-229 228.5t-313.5 84q-127 0 -243.5 -50t-200.5 -134t-134 -199.5t-50 -242.5zM700 1741l33 -62q17 -33 49 -14l340 180q32 19 15 51l-33 60q-17 34 -51 16l-336 -182q-32 -19 -17 -49z" />
<glyph unicode="&#xd4;" d="M102 760q0 209 103.5 386t281.5 280.5t387 103.5q156 0 299 -61t246 -164.5t164.5 -246t61.5 -298.5q0 -157 -61.5 -300t-164.5 -246.5t-246 -164.5t-299 -61q-157 0 -300 61t-246.5 164.5t-164.5 246.5t-61 300zM246 760q0 -127 50 -243.5t134 -201t200.5 -134.5 t243.5 -50q169 0 313.5 84.5t229 229.5t84.5 315q0 169 -84.5 313.5t-229 228.5t-313.5 84q-127 0 -243.5 -50t-200.5 -134t-134 -199.5t-50 -242.5zM569 1644q6 -14 29 -14h96q29 0 45 21l123 149l131 -149q18 -21 45 -21h97q23 0 29 14t-9 31l-227 246q-13 16 -37 16h-49 q-24 0 -37 -16l-227 -246q-15 -17 -9 -31z" />
<glyph unicode="&#xd5;" d="M102 760q0 209 103.5 386t281.5 280.5t387 103.5q156 0 299 -61t246 -164.5t164.5 -246t61.5 -298.5q0 -157 -61.5 -300t-164.5 -246.5t-246 -164.5t-299 -61q-157 0 -300 61t-246.5 164.5t-164.5 246.5t-61 300zM246 760q0 -127 50 -243.5t134 -201t200.5 -134.5 t243.5 -50q169 0 313.5 84.5t229 229.5t84.5 315q0 169 -84.5 313.5t-229 228.5t-313.5 84q-127 0 -243.5 -50t-200.5 -134t-134 -199.5t-50 -242.5zM560 1713q3 -14 18 -23l59 -39q26 -17 51 8q27 27 62 27q21 0 82.5 -28t113.5 -28q56 0 108.5 25t92.5 71q27 31 -8 52 l-60 39q-28 19 -51 -11q-36 -45 -88 -45q-32 0 -99 29t-108 29q-44 0 -89 -22t-75 -56q-12 -14 -9 -28z" />
<glyph unicode="&#xd6;" d="M102 760q0 209 103.5 386t281.5 280.5t387 103.5q156 0 299 -61t246 -164.5t164.5 -246t61.5 -298.5q0 -157 -61.5 -300t-164.5 -246.5t-246 -164.5t-299 -61q-157 0 -300 61t-246.5 164.5t-164.5 246.5t-61 300zM246 760q0 -127 50 -243.5t134 -201t200.5 -134.5 t243.5 -50q169 0 313.5 84.5t229 229.5t84.5 315q0 169 -84.5 313.5t-229 228.5t-313.5 84q-127 0 -243.5 -50t-200.5 -134t-134 -199.5t-50 -242.5zM668 1698q0 -28 20 -48t49 -20t49.5 20t20.5 48q0 29 -20.5 49t-49.5 20t-49 -20t-20 -49zM930 1698q0 -28 20 -48t49 -20 q28 0 48 20t20 48q0 29 -20 49t-48 20q-29 0 -49 -20t-20 -49z" />
<glyph unicode="&#xd7;" horiz-adv-x="1103" d="M135 864.5q0 14.5 12 26.5l46 45q27 26 53 0l315 -315l307 307q12 12 27 12t27 -12l45 -45q12 -12 12 -27t-12 -27l-308 -307l316 -317q27 -27 0 -53l-45 -46q-26 -26 -53 0l-316 318l-323 -324q-27 -27 -54 0l-45 45q-27 27 0 54l324 323l-316 316q-12 12 -12 26.5z" />
<glyph unicode="&#xd8;" d="M102 760q0 209 103.5 386t281.5 280.5t387 103.5q171 0 328 -74l33 53q16 28 43 11l59 -37q26 -16 11 -43l-31 -49q152 -108 240 -273.5t88 -357.5q0 -157 -61.5 -300t-164.5 -246.5t-246 -164.5t-299 -61q-203 0 -376 98l-43 -68q-15 -27 -43 -10l-62 35q-25 16 -10 43 l47 76q-133 108 -209 264t-76 334zM246 760q0 -140 58 -263.5t161 -211.5l659 1048q-115 53 -250 53q-127 0 -243.5 -50t-200.5 -134t-134 -199.5t-50 -242.5zM573 209q143 -78 301 -78q169 0 313.5 84.5t229 229.5t84.5 315q0 154 -70.5 287t-191.5 221z" />
<glyph unicode="&#xd9;" horiz-adv-x="1189" d="M133 455q0 -127 62.5 -234.5t170 -170t234.5 -62.5t234.5 62.5t170 170t62.5 234.5v1024q0 37 -37 37h-69q-37 0 -37 -37v-1024q0 -133 -95 -228.5t-229 -95.5t-229 95.5t-95 228.5v1024q0 37 -36 37h-70q-37 0 -37 -37v-1024zM313 1896q-17 -32 15 -51l340 -180 q32 -19 49 14l33 62q15 30 -17 49l-336 182q-15 9 -29 4t-22 -20z" />
<glyph unicode="&#xda;" horiz-adv-x="1189" d="M133 455q0 -127 62.5 -234.5t170 -170t234.5 -62.5t234.5 62.5t170 170t62.5 234.5v1024q0 37 -37 37h-69q-37 0 -37 -37v-1024q0 -133 -95 -228.5t-229 -95.5t-229 95.5t-95 228.5v1024q0 37 -36 37h-70q-37 0 -37 -37v-1024zM432 1741l33 -62q17 -33 49 -14l340 180 q31 19 14 51l-32 60q-17 34 -52 16l-335 -182q-32 -19 -17 -49z" />
<glyph unicode="&#xdb;" horiz-adv-x="1189" d="M133 455q0 -127 62.5 -234.5t170 -170t234.5 -62.5t234.5 62.5t170 170t62.5 234.5v1024q0 37 -37 37h-69q-37 0 -37 -37v-1024q0 -133 -95 -228.5t-229 -95.5t-229 95.5t-95 228.5v1024q0 37 -36 37h-70q-37 0 -37 -37v-1024zM300.5 1644q6.5 -14 29.5 -14h96 q29 0 45 21l123 149l131 -149q18 -21 45 -21h96q23 0 29.5 14t-8.5 31l-228 246q-13 16 -36 16h-50q-23 0 -36 -16l-228 -246q-15 -17 -8.5 -31z" />
<glyph unicode="&#xdc;" horiz-adv-x="1189" d="M133 455q0 -127 62.5 -234.5t170 -170t234.5 -62.5t234.5 62.5t170 170t62.5 234.5v1024q0 37 -37 37h-69q-37 0 -37 -37v-1024q0 -133 -95 -228.5t-229 -95.5t-229 95.5t-95 228.5v1024q0 37 -36 37h-70q-37 0 -37 -37v-1024zM399 1698q0 -28 20.5 -48t49.5 -20t49.5 20 t20.5 48q0 29 -20.5 49t-49.5 20t-49.5 -20t-20.5 -49zM662 1698q0 -28 20 -48t49 -20q28 0 48 20t20 48q0 29 -20 49t-48 20q-29 0 -49 -20t-20 -49z" />
<glyph unicode="&#xdd;" horiz-adv-x="1245" d="M115 1479q-19 37 20 37h107q25 0 37 -21l348 -594l350 594q12 21 37 21h106q40 0 21 -37l-443 -756v-686q0 -37 -36 -37h-68q-37 0 -37 37v686zM451 1741l32 -62q17 -33 49 -14l340 180q32 19 15 51l-33 60q-17 34 -51 16l-336 -182q-31 -19 -16 -49z" />
<glyph unicode="&#xde;" horiz-adv-x="1073" d="M133 37v1442q0 37 37 37h70q36 0 36 -37v-265h297q177 0 302.5 -125.5t125.5 -300.5q0 -177 -125.5 -302.5t-302.5 -125.5h-297v-323q0 -37 -36 -37h-70q-37 0 -37 37zM276 504h297q119 0 202 83t83 201q0 117 -83.5 200t-201.5 83h-297v-567z" />
<glyph unicode="&#xdf;" horiz-adv-x="1011" d="M133 37v1442q0 37 37 37h274q172 0 294 -120t122 -290q0 -95 -40.5 -180.5t-110.5 -145.5q91 -56 145.5 -152.5t54.5 -205.5t-54 -207t-143.5 -156.5t-189.5 -58.5h-39q-37 0 -37 37v69q0 37 37 37h33q99 0 174.5 84.5t75.5 192.5t-75.5 195t-174.5 87h-33q-37 0 -37 37 v68q0 37 37 37h33q63 0 110.5 40.5t69 97.5t21.5 118q0 117 -79.5 194.5t-193.5 77.5h-168v-1335q0 -37 -36 -37h-70q-37 0 -37 37z" />
<glyph unicode="&#xe0;" horiz-adv-x="1282" d="M102 514q0 106 42 203.5t113 168t169.5 112.5t206.5 42q117 0 222.5 -49.5t178.5 -136.5v133q0 37 37 37h51q37 0 37 -37v-950q0 -37 -37 -37h-51q-37 0 -37 37v133q-73 -87 -178.5 -136.5t-222.5 -49.5q-144 0 -266.5 71t-193.5 193t-71 266zM248 514q0 -161 112.5 -274 t272.5 -113t272.5 113t112.5 274q0 158 -112.5 270.5t-272.5 112.5t-272.5 -112.5t-112.5 -270.5zM346 1409l33 59q8 15 22 20.5t29 -3.5l336 -182q32 -19 16 -50l-32 -61q-8 -15 -21.5 -19t-28.5 5l-340 180q-31 19 -14 51z" />
<glyph unicode="&#xe1;" horiz-adv-x="1282" d="M102 514q0 106 42 203.5t113 168t169.5 112.5t206.5 42q117 0 222.5 -49.5t178.5 -136.5v133q0 37 37 37h51q37 0 37 -37v-950q0 -37 -37 -37h-51q-37 0 -37 37v133q-73 -87 -178.5 -136.5t-222.5 -49.5q-144 0 -266.5 71t-193.5 193t-71 266zM248 514q0 -161 112.5 -274 t272.5 -113t272.5 113t112.5 274q0 158 -112.5 270.5t-272.5 112.5t-272.5 -112.5t-112.5 -270.5zM465 1253q-16 31 16 50l336 182q34 18 51 -17l33 -59q17 -32 -14 -51l-340 -180q-32 -19 -49 14z" />
<glyph unicode="&#xe2;" horiz-adv-x="1282" d="M102 514q0 106 42 203.5t113 168t169.5 112.5t206.5 42q117 0 222.5 -49.5t178.5 -136.5v133q0 37 37 37h51q37 0 37 -37v-950q0 -37 -37 -37h-51q-37 0 -37 37v133q-73 -87 -178.5 -136.5t-222.5 -49.5q-144 0 -266.5 71t-193.5 193t-71 266zM248 514q0 -161 112.5 -274 t272.5 -113t272.5 113t112.5 274q0 158 -112.5 270.5t-272.5 112.5t-272.5 -112.5t-112.5 -270.5zM333 1157q-6 14 9 31l227 246q13 16 37 16h49q24 0 37 -16l228 -246q15 -17 8.5 -31t-29.5 -14h-96q-28 0 -45 20l-131 150l-123 -150q-15 -20 -45 -20h-97q-23 0 -29 14z " />
<glyph unicode="&#xe3;" horiz-adv-x="1282" d="M102 514q0 106 42 203.5t113 168t169.5 112.5t206.5 42q117 0 222.5 -49.5t178.5 -136.5v133q0 37 37 37h51q37 0 37 -37v-950q0 -37 -37 -37h-51q-37 0 -37 37v133q-73 -87 -178.5 -136.5t-222.5 -49.5q-144 0 -266.5 71t-193.5 193t-71 266zM248 514q0 -161 112.5 -274 t272.5 -113t272.5 113t112.5 274q0 158 -112.5 270.5t-272.5 112.5t-272.5 -112.5t-112.5 -270.5zM324.5 1225q-2.5 14 9.5 28q30 34 75 56t89 22q40 0 108 -28.5t99 -28.5q52 0 88 45q23 29 51 10l59 -39q35 -21 8 -51q-83 -96 -200 -96q-52 0 -114 27.5t-83 27.5 q-34 0 -61 -27q-26 -26 -52 -8l-59 39q-15 9 -17.5 23z" />
<glyph unicode="&#xe4;" horiz-adv-x="1282" d="M102 514q0 106 42 203.5t113 168t169.5 112.5t206.5 42q117 0 222.5 -49.5t178.5 -136.5v133q0 37 37 37h51q37 0 37 -37v-950q0 -37 -37 -37h-51q-37 0 -37 37v133q-73 -87 -178.5 -136.5t-222.5 -49.5q-144 0 -266.5 71t-193.5 193t-71 266zM248 514q0 -161 112.5 -274 t272.5 -113t272.5 113t112.5 274q0 158 -112.5 270.5t-272.5 112.5t-272.5 -112.5t-112.5 -270.5zM432 1210q0 29 20.5 49.5t49.5 20.5t49 -20.5t20 -49.5q0 -28 -20 -47.5t-49 -19.5t-49.5 19.5t-20.5 47.5zM694 1210q0 29 20.5 49.5t49.5 20.5q28 0 47.5 -20.5t19.5 -49.5 q0 -28 -19.5 -47.5t-47.5 -19.5q-29 0 -49.5 19.5t-20.5 47.5z" />
<glyph unicode="&#xe5;" horiz-adv-x="1282" d="M102 514q0 106 42 203.5t113 168t169.5 112.5t206.5 42q117 0 222.5 -49.5t178.5 -136.5v133q0 37 37 37h51q37 0 37 -37v-950q0 -37 -37 -37h-51q-37 0 -37 37v133q-73 -87 -178.5 -136.5t-222.5 -49.5q-144 0 -266.5 71t-193.5 193t-71 266zM248 514q0 -161 112.5 -274 t272.5 -113t272.5 113t112.5 274q0 158 -112.5 270.5t-272.5 112.5t-272.5 -112.5t-112.5 -270.5zM432 1343q0 83 59 141t142 58t142 -58t59 -141t-59 -141.5t-142 -58.5t-142 58.5t-59 141.5zM535 1343q0 -41 29 -69.5t69 -28.5t69 28.5t29 69.5q0 40 -29 68.5t-69 28.5 t-69 -28.5t-29 -68.5z" />
<glyph unicode="&#xe6;" horiz-adv-x="2129" d="M102 514q0 106 42 203.5t113 168t169.5 112.5t206.5 42q117 0 222.5 -49.5t178.5 -136.5v133q0 37 37 37h51q37 0 37 -37v-88q70 67 163.5 104t197.5 37q215 0 360.5 -149t157.5 -389q0 -37 -37 -37h-842q23 -149 128.5 -242.5t246.5 -93.5q167 0 311 133q12 12 26 11 t25 -15l41 -51q22 -25 0 -51q-84 -87 -189.5 -129.5t-213.5 -42.5q-226 0 -375 159v-106q0 -37 -37 -37h-51q-37 0 -37 37v133q-73 -87 -178.5 -136.5t-222.5 -49.5q-144 0 -266.5 71t-193.5 193t-71 266zM248 514q0 -161 112.5 -274t272.5 -113t272.5 113t112.5 274 q0 158 -112.5 270.5t-272.5 112.5t-272.5 -112.5t-112.5 -270.5zM1159 586h723q-22 136 -125 226.5t-237 90.5q-130 0 -234.5 -86t-126.5 -231z" />
<glyph unicode="&#xe7;" horiz-adv-x="1093" d="M102 512q0 144 71 265.5t193 192t265 70.5q194 0 344 -127q26 -20 6 -51l-41 -55q-22 -32 -51 -6q-116 96 -258 96q-158 0 -271.5 -113.5t-113.5 -271.5t113.5 -271.5t271.5 -113.5q142 0 258 96q28 25 51 -4l41 -55q20 -31 -6 -51q-127 -108 -285 -125v-62 q67 -24 110.5 -81t43.5 -128q0 -90 -63 -150.5t-154 -60.5q-82 0 -141.5 50.5t-71.5 128.5q-3 32 30 32h60q24 0 33 -28t34 -45t56 -17q40 0 67 26t27 64q0 39 -27.5 67t-66.5 28h-31q-14 0 -22.5 8.5t-8.5 21.5v146q-197 25 -330 174t-133 350z" />
<glyph unicode="&#xe8;" horiz-adv-x="1224" d="M102 530q0 219 148 364.5t364 145.5q215 0 361 -149t158 -389q0 -37 -37 -37h-842q23 -149 128.5 -242.5t246.5 -93.5q167 0 311 133q12 12 26 11t25 -15l41 -51q22 -25 0 -51q-84 -87 -189.5 -129.5t-213.5 -42.5q-151 0 -273 76.5t-188 201t-66 268.5zM254 586h723 q-22 136 -125.5 226.5t-237.5 90.5q-130 0 -234 -86t-126 -231zM328 1409q-17 -32 14 -51l340 -180q32 -19 49 14l33 61q16 31 -16 50l-336 182q-15 9 -29.5 3.5t-22.5 -20.5z" />
<glyph unicode="&#xe9;" horiz-adv-x="1224" d="M102 530q0 219 148 364.5t364 145.5q215 0 361 -149t158 -389q0 -37 -37 -37h-842q23 -149 128.5 -242.5t246.5 -93.5q167 0 311 133q12 12 26 11t25 -15l41 -51q22 -25 0 -51q-84 -87 -189.5 -129.5t-213.5 -42.5q-151 0 -273 76.5t-188 201t-66 268.5zM254 586h723 q-22 136 -125.5 226.5t-237.5 90.5q-130 0 -234 -86t-126 -231zM446 1253l33 -61q17 -33 49 -14l340 180q32 19 15 51l-33 59q-17 35 -51 17l-336 -182q-32 -19 -17 -50z" />
<glyph unicode="&#xea;" horiz-adv-x="1224" d="M102 530q0 219 148 364.5t364 145.5q215 0 361 -149t158 -389q0 -37 -37 -37h-842q23 -149 128.5 -242.5t246.5 -93.5q167 0 311 133q12 12 26 11t25 -15l41 -51q22 -25 0 -51q-84 -87 -189.5 -129.5t-213.5 -42.5q-151 0 -273 76.5t-188 201t-66 268.5zM254 586h723 q-22 136 -125.5 226.5t-237.5 90.5q-130 0 -234 -86t-126 -231zM315 1157q6 -14 29 -14h96q30 0 45 20l123 150l131 -150q17 -20 45 -20h97q23 0 29 14t-9 31l-227 246q-13 16 -37 16h-49q-24 0 -37 -16l-227 -246q-15 -17 -9 -31z" />
<glyph unicode="&#xeb;" horiz-adv-x="1224" d="M102 530q0 219 148 364.5t364 145.5q215 0 361 -149t158 -389q0 -37 -37 -37h-842q23 -149 128.5 -242.5t246.5 -93.5q167 0 311 133q12 12 26 11t25 -15l41 -51q22 -25 0 -51q-84 -87 -189.5 -129.5t-213.5 -42.5q-151 0 -273 76.5t-188 201t-66 268.5zM254 586h723 q-22 136 -125.5 226.5t-237.5 90.5q-130 0 -234 -86t-126 -231zM414 1210q0 -28 20 -47.5t49 -19.5t49.5 19.5t20.5 47.5q0 29 -20.5 49.5t-49.5 20.5t-49 -20.5t-20 -49.5zM676 1210q0 -28 20 -47.5t49 -19.5q28 0 48 19.5t20 47.5q0 29 -20 49.5t-48 20.5q-29 0 -49 -20.5 t-20 -49.5z" />
<glyph unicode="&#xec;" horiz-adv-x="380" d="M-92 1409q-17 -32 14 -51l340 -180q32 -19 49 14l33 61q16 31 -16 50l-336 182q-15 9 -29 3.5t-22 -20.5zM123 37q0 -37 37 -37h71q37 0 37 37v950q0 37 -37 37h-71q-37 0 -37 -37v-950z" />
<glyph unicode="&#xed;" horiz-adv-x="380" d="M27 1253l32 -61q8 -15 21.5 -19t28.5 5l340 180q31 19 14 51l-33 59q-17 35 -51 17l-336 -182q-32 -19 -16 -50zM123 37q0 -37 37 -37h71q37 0 37 37v950q0 37 -37 37h-71q-37 0 -37 -37v-950z" />
<glyph unicode="&#xee;" horiz-adv-x="380" d="M-105 1157q6 -14 29 -14h96q31 0 46 20l122 150l131 -150q17 -20 46 -20h96q23 0 29 14t-9 31l-227 246q-13 16 -37 16h-49q-24 0 -37 -16l-227 -246q-15 -17 -9 -31zM123 37q0 -37 37 -37h71q37 0 37 37v950q0 37 -37 37h-71q-37 0 -37 -37v-950z" />
<glyph unicode="&#xef;" horiz-adv-x="380" d="M-6 1210q0 -28 20 -47.5t49 -19.5t49.5 19.5t20.5 47.5q0 29 -20.5 49.5t-49.5 20.5t-49 -20.5t-20 -49.5zM123 37q0 -37 37 -37h71q37 0 37 37v950q0 37 -37 37h-71q-37 0 -37 -37v-950zM256 1210q0 -28 20.5 -47.5t49.5 -19.5q28 0 47.5 19.5t19.5 47.5 q0 29 -19.5 49.5t-47.5 20.5q-29 0 -49.5 -20.5t-20.5 -49.5z" />
<glyph unicode="&#xf0;" horiz-adv-x="1202" d="M102 492q0 138 67.5 255.5t183.5 185.5t253 68q60 0 135 -20l-129 215l-108 -63q-31 -18 -49 12l-37 61q-18 30 14 49l107 64l-56 94q-19 31 15 51l55 33q31 18 49 -12l57 -94l111 65q31 18 49 -12l37 -62q18 -30 -14 -49l-111 -65l322 -539q57 -95 57 -237 q0 -135 -67 -251t-183.5 -184.5t-253.5 -68.5t-253.5 68.5t-183.5 184.5t-67 251zM242 492q0 -148 107 -254.5t257 -106.5t257.5 106.5t107.5 254.5q0 147 -106 256.5t-259 109.5q-151 0 -257.5 -107.5t-106.5 -258.5z" />
<glyph unicode="&#xf1;" horiz-adv-x="1081" d="M123 37v950q0 37 37 37h53q37 0 37 -37v-72q125 125 303 125q177 0 301.5 -124.5t124.5 -301.5v-577q0 -37 -37 -37h-70q-36 0 -36 37v577q0 117 -84 201t-201 84q-118 0 -201.5 -84t-83.5 -201v-577q0 -37 -37 -37h-69q-37 0 -37 37zM242.5 1225q-2.5 14 9.5 28 q30 34 75 56t89 22q40 0 108 -28.5t99 -28.5q52 0 88 45q23 29 51 10l59 -39q35 -21 8 -51q-83 -96 -200 -96q-52 0 -114 27.5t-83 27.5q-34 0 -61 -27q-26 -26 -52 -8l-59 39q-15 9 -17.5 23z" />
<glyph unicode="&#xf2;" horiz-adv-x="1241" d="M92 512q0 143 71 264.5t193 192.5t265 71t264.5 -71t192.5 -192.5t71 -264.5t-71 -264.5t-192.5 -192.5t-264.5 -71t-265 71t-193 192.5t-71 264.5zM236 512q0 -160 112.5 -272.5t272.5 -112.5t271.5 112.5t111.5 272.5t-111.5 271.5t-271.5 111.5t-272.5 -111.5 t-112.5 -271.5zM334 1409q-17 -32 14 -51l340 -180q32 -19 49 14l33 61q16 31 -16 50l-336 182q-15 9 -29 3.5t-22 -20.5z" />
<glyph unicode="&#xf3;" horiz-adv-x="1241" d="M92 512q0 143 71 264.5t193 192.5t265 71t264.5 -71t192.5 -192.5t71 -264.5t-71 -264.5t-192.5 -192.5t-264.5 -71t-265 71t-193 192.5t-71 264.5zM236 512q0 -160 112.5 -272.5t272.5 -112.5t271.5 112.5t111.5 272.5t-111.5 271.5t-271.5 111.5t-272.5 -111.5 t-112.5 -271.5zM453 1253l32 -61q8 -15 21.5 -19t28.5 5l339 180q32 19 15 51l-33 59q-17 35 -51 17l-336 -182q-32 -19 -16 -50z" />
<glyph unicode="&#xf4;" horiz-adv-x="1241" d="M92 512q0 143 71 264.5t193 192.5t265 71t264.5 -71t192.5 -192.5t71 -264.5t-71 -264.5t-192.5 -192.5t-264.5 -71t-265 71t-193 192.5t-71 264.5zM236 512q0 -160 112.5 -272.5t272.5 -112.5t271.5 112.5t111.5 272.5t-111.5 271.5t-271.5 111.5t-272.5 -111.5 t-112.5 -271.5zM321 1157q6 -14 29 -14h96q31 0 46 20l122 150l131 -150q17 -20 46 -20h96q23 0 29 14t-9 31l-227 246q-13 16 -37 16h-49q-24 0 -37 -16l-227 -246q-15 -17 -9 -31z" />
<glyph unicode="&#xf5;" horiz-adv-x="1241" d="M92 512q0 143 71 264.5t193 192.5t265 71t264.5 -71t192.5 -192.5t71 -264.5t-71 -264.5t-192.5 -192.5t-264.5 -71t-265 71t-193 192.5t-71 264.5zM236 512q0 -160 112.5 -272.5t272.5 -112.5t271.5 112.5t111.5 272.5t-111.5 271.5t-271.5 111.5t-272.5 -111.5 t-112.5 -271.5zM312.5 1225q2.5 -14 17.5 -23l59 -39q26 -17 51 8q27 27 62 27q21 0 82.5 -27.5t113.5 -27.5q56 0 108.5 25t92.5 71q27 30 -8 51l-60 39q-28 19 -51 -10q-36 -45 -88 -45q-32 0 -99 28.5t-108 28.5q-44 0 -88.5 -22t-74.5 -56q-12 -14 -9.5 -28z" />
<glyph unicode="&#xf6;" horiz-adv-x="1241" d="M92 512q0 143 71 264.5t193 192.5t265 71t264.5 -71t192.5 -192.5t71 -264.5t-71 -264.5t-192.5 -192.5t-264.5 -71t-265 71t-193 192.5t-71 264.5zM236 512q0 -160 112.5 -272.5t272.5 -112.5t271.5 112.5t111.5 272.5t-111.5 271.5t-271.5 111.5t-272.5 -111.5 t-112.5 -271.5zM420 1210q0 -28 20 -47.5t49 -19.5t49.5 19.5t20.5 47.5q0 29 -20.5 49.5t-49.5 20.5t-49 -20.5t-20 -49.5zM682 1210q0 -28 20.5 -47.5t49.5 -19.5q28 0 47.5 19.5t19.5 47.5q0 29 -19.5 49.5t-47.5 20.5q-29 0 -49.5 -20.5t-20.5 -49.5z" />
<glyph unicode="&#xf7;" horiz-adv-x="1136" d="M92 563q0 -37 37 -37h889q37 0 37 37v66q0 37 -37 37h-889q-37 0 -37 -37v-66zM479 297q0 -39 26.5 -65.5t67.5 -26.5q39 0 68 27t29 65q0 41 -29 69.5t-68 28.5q-41 0 -67.5 -28t-26.5 -70zM479 897q0 -40 26.5 -68t67.5 -28q39 0 68 28.5t29 67.5t-29 66.5t-68 27.5 q-41 0 -67.5 -27t-26.5 -67z" />
<glyph unicode="&#xf8;" horiz-adv-x="1261" d="M102 512q0 143 71 264.5t193 192.5t265 71q110 0 203 -41l16 25q15 27 43 10l59 -37q26 -16 11 -43l-15 -20q99 -75 155 -185t56 -237q0 -143 -71 -264.5t-192.5 -192.5t-264.5 -71q-126 0 -240 57l-14 -25q-15 -27 -43 -10l-62 35q-25 16 -10 43l21 33q-85 73 -133 176 t-48 219zM246 512q0 -160 112 -272l398 634q-68 21 -125 21q-160 0 -272.5 -111.5t-112.5 -271.5zM469 162q75 -35 162 -35q160 0 271.5 112.5t111.5 272.5q0 89 -38 166.5t-104 132.5z" />
<glyph unicode="&#xf9;" horiz-adv-x="1077" d="M123 410q0 -177 124.5 -301.5t301.5 -124.5q175 0 300.5 125t125.5 301v577q0 37 -37 37h-70q-37 0 -37 -37v-577q0 -117 -82.5 -201t-199.5 -84q-118 0 -201.5 84t-83.5 201v577q0 37 -37 37h-67q-37 0 -37 -37v-577zM256 1409q-17 -32 14 -51l340 -180q32 -19 49 14 l33 61q16 31 -16 50l-336 182q-15 9 -29 3.5t-22 -20.5z" />
<glyph unicode="&#xfa;" horiz-adv-x="1077" d="M123 410q0 -177 124.5 -301.5t301.5 -124.5q175 0 300.5 125t125.5 301v577q0 37 -37 37h-70q-37 0 -37 -37v-577q0 -117 -82.5 -201t-199.5 -84q-118 0 -201.5 84t-83.5 201v577q0 37 -37 37h-67q-37 0 -37 -37v-577zM375 1253l33 -61q17 -33 49 -14l340 180 q31 19 14 51l-33 59q-17 35 -51 17l-336 -182q-32 -19 -16 -50z" />
<glyph unicode="&#xfb;" horiz-adv-x="1077" d="M123 410q0 -177 124.5 -301.5t301.5 -124.5q175 0 300.5 125t125.5 301v577q0 37 -37 37h-70q-37 0 -37 -37v-577q0 -117 -82.5 -201t-199.5 -84q-118 0 -201.5 84t-83.5 201v577q0 37 -37 37h-67q-37 0 -37 -37v-577zM243 1157q6 -14 29 -14h97q30 0 45 20l123 150 l131 -150q17 -20 45 -20h96q23 0 29 14t-9 31l-227 246q-13 16 -37 16h-49q-24 0 -37 -16l-227 -246q-15 -17 -9 -31z" />
<glyph unicode="&#xfc;" horiz-adv-x="1077" d="M123 410q0 -177 124.5 -301.5t301.5 -124.5q175 0 300.5 125t125.5 301v577q0 37 -37 37h-70q-37 0 -37 -37v-577q0 -117 -82.5 -201t-199.5 -84q-118 0 -201.5 84t-83.5 201v577q0 37 -37 37h-67q-37 0 -37 -37v-577zM342 1210q0 -28 20.5 -47.5t49.5 -19.5t49 19.5 t20 47.5q0 29 -20 49.5t-49 20.5t-49.5 -20.5t-20.5 -49.5zM604 1210q0 -28 20.5 -47.5t49.5 -19.5q28 0 47.5 19.5t19.5 47.5q0 29 -19.5 49.5t-47.5 20.5q-29 0 -49.5 -20.5t-20.5 -49.5z" />
<glyph unicode="&#xfd;" horiz-adv-x="1124" d="M86 989q-12 35 25 35h88q28 0 37 -25l311 -759l309 759q9 25 37 25h90q37 0 25 -35l-437 -1061q-102 -245 -344 -342q-33 -12 -47 23l-24 61q-12 35 20 49q111 45 177 124t116 210zM365 1253l32 -61q17 -33 49 -14l340 180q32 19 15 51l-33 59q-17 35 -51 17l-336 -182 q-32 -19 -16 -50z" />
<glyph unicode="&#xfe;" horiz-adv-x="1269" d="M123 -373v1770q0 37 37 37h67q37 0 37 -37v-518q72 77 172 119t213 42q219 0 374 -155t155 -373q0 -144 -70.5 -265.5t-192.5 -192t-266 -70.5q-112 0 -212 44t-173 122v-523q0 -37 -37 -37h-67q-37 0 -37 37zM264 512q0 -159 113 -272t272 -113q160 0 272.5 112.5 t112.5 272.5t-112.5 271.5t-272.5 111.5q-159 0 -272 -112t-113 -271z" />
<glyph unicode="&#xff;" horiz-adv-x="1124" d="M86 989q-12 35 25 35h88q28 0 37 -25l311 -759l309 759q9 25 37 25h90q37 0 25 -35l-437 -1061q-102 -245 -344 -342q-33 -12 -47 23l-24 61q-12 35 20 49q111 45 177 124t116 210zM332 1210q0 -28 20 -47.5t49 -19.5t49.5 19.5t20.5 47.5q0 29 -20.5 49.5t-49.5 20.5 t-49 -20.5t-20 -49.5zM594 1210q0 -28 20.5 -47.5t49.5 -19.5q28 0 47.5 19.5t19.5 47.5q0 29 -19.5 49.5t-47.5 20.5q-29 0 -49.5 -20.5t-20.5 -49.5z" />
<glyph unicode="&#x152;" horiz-adv-x="2342" d="M102 756q0 209 103 386t280.5 280.5t386.5 103.5q190 0 355.5 -86.5t271.5 -235.5v275q0 37 37 37h657q37 0 37 -37v-70q0 -37 -37 -37h-551v-551h519q13 0 21.5 -8.5t8.5 -21.5v-66q0 -14 -8.5 -22.5t-21.5 -8.5h-519v-551h551q37 0 37 -37v-69q0 -37 -37 -37h-657 q-37 0 -37 37v268q-106 -149 -271 -235t-356 -86q-209 0 -386.5 103.5t-280.5 281t-103 387.5zM246 756q0 -172 83 -317t227 -228.5t316 -83.5q170 0 315 84.5t229.5 229.5t84.5 315q0 127 -50 242.5t-134.5 199.5t-201 134t-243.5 50t-243 -50t-200 -134t-133.5 -199.5 t-49.5 -242.5z" />
<glyph unicode="&#x153;" horiz-adv-x="2129" d="M102 512q0 143 71 264.5t193 192.5t265 71q137 0 255.5 -66.5t190.5 -178.5q67 114 184.5 179.5t258.5 65.5q215 0 360.5 -149t157.5 -389q0 -37 -37 -37h-842q23 -149 128.5 -242.5t246.5 -93.5q167 0 311 133q12 12 26 11t25 -15l41 -51q22 -25 0 -51 q-84 -87 -189.5 -129.5t-213.5 -42.5q-145 0 -263 70t-186 188q-70 -118 -191 -188t-263 -70q-143 0 -265 71t-193 192.5t-71 264.5zM246 512q0 -160 112.5 -272.5t272.5 -112.5t271.5 112.5t111.5 272.5t-111.5 271.5t-271.5 111.5t-272.5 -111.5t-112.5 -271.5zM1159 586 h723q-22 136 -125 226.5t-237 90.5q-130 0 -234.5 -86t-126.5 -231z" />
<glyph unicode="&#x178;" horiz-adv-x="1245" d="M115 1479q-19 37 20 37h107q25 0 37 -21l348 -594l350 594q12 21 37 21h106q40 0 21 -37l-443 -756v-686q0 -37 -36 -37h-68q-37 0 -37 37v686zM418 1698q0 -28 20 -48t49 -20t49.5 20t20.5 48q0 29 -20.5 49t-49.5 20t-49 -20t-20 -49zM680 1698q0 -28 20.5 -48 t49.5 -20q28 0 47.5 20t19.5 48q0 29 -19.5 49t-47.5 20q-29 0 -49.5 -20t-20.5 -49z" />
<glyph unicode="&#x2c6;" horiz-adv-x="864" d="M134.5 1181q6.5 -14 29.5 -14h96q29 0 45 21l123 149l131 -149q18 -21 45 -21h96q23 0 29.5 14t-8.5 31l-227 246q-14 17 -37 17h-49q-23 0 -37 -17l-228 -246q-15 -17 -8.5 -31z" />
<glyph unicode="&#x2dc;" horiz-adv-x="829" d="M115.5 1250q2.5 -14 17.5 -23l60 -39q26 -17 51 8q27 27 61 27q21 0 83 -28t114 -28q116 0 200 97q27 30 -8 51l-59 39q-28 19 -51 -11q-36 -45 -88 -45q-32 0 -99 29t-108 29q-44 0 -89 -22t-75 -56q-12 -14 -9.5 -28z" />
<glyph unicode="&#x2000;" horiz-adv-x="1015" />
<glyph unicode="&#x2001;" horiz-adv-x="2030" />
<glyph unicode="&#x2002;" horiz-adv-x="1015" />
<glyph unicode="&#x2003;" horiz-adv-x="2030" />
<glyph unicode="&#x2004;" horiz-adv-x="676" />
<glyph unicode="&#x2005;" horiz-adv-x="507" />
<glyph unicode="&#x2006;" horiz-adv-x="338" />
<glyph unicode="&#x2007;" horiz-adv-x="338" />
<glyph unicode="&#x2008;" horiz-adv-x="253" />
<glyph unicode="&#x2009;" horiz-adv-x="406" />
<glyph unicode="&#x200a;" horiz-adv-x="112" />
<glyph unicode="&#x2010;" horiz-adv-x="774" d="M113 575q0 -36 37 -36h475q37 0 37 36v84q0 37 -37 37h-475q-37 0 -37 -37v-84z" />
<glyph unicode="&#x2011;" horiz-adv-x="774" d="M113 575q0 -36 37 -36h475q37 0 37 36v84q0 37 -37 37h-475q-37 0 -37 -37v-84z" />
<glyph unicode="&#x2012;" horiz-adv-x="774" d="M113 575q0 -36 37 -36h475q37 0 37 36v84q0 37 -37 37h-475q-37 0 -37 -37v-84z" />
<glyph unicode="&#x2013;" horiz-adv-x="1427" d="M123 569q0 -37 37 -37h1108q37 0 37 37v84q0 37 -37 37h-1108q-37 0 -37 -37v-84z" />
<glyph unicode="&#x2014;" horiz-adv-x="2273" d="M113 575q0 -36 138 -36h1772q138 0 138 36v84q0 37 -138 37h-1772q-138 0 -138 -37v-84z" />
<glyph unicode="&#x2018;" horiz-adv-x="415" d="M113 1475q-9 41 32 41h56q32 0 41 -33l71 -289q9 -41 -32 -41h-58q-34 0 -41 33z" />
<glyph unicode="&#x2019;" horiz-adv-x="415" d="M102 1194l72 289q9 33 41 33h55q42 0 33 -41l-70 -289q-7 -33 -40 -33h-58q-42 0 -33 41z" />
<glyph unicode="&#x201c;" horiz-adv-x="645" d="M113 1475q-9 41 32 41h56q32 0 41 -33l71 -289q9 -41 -32 -41h-58q-34 0 -41 33zM342 1475q-9 41 33 41h55q32 0 41 -33l72 -289q9 -41 -33 -41h-57q-34 0 -41 33z" />
<glyph unicode="&#x201d;" horiz-adv-x="645" d="M102 1194l72 289q9 33 41 33h55q42 0 33 -41l-70 -289q-7 -33 -40 -33h-58q-42 0 -33 41zM332 1194l71 289q9 33 41 33h56q41 0 32 -41l-69 -289q-7 -33 -41 -33h-57q-42 0 -33 41z" />
<glyph unicode="&#x201e;" horiz-adv-x="634" d="M92 -92l72 289q8 32 41 32h55q42 0 33 -41l-70 -288q-7 -33 -41 -33h-57q-42 0 -33 41zM322 -92l71 289q8 32 41 32h55q42 0 33 -41l-69 -288q-7 -33 -41 -33h-58q-41 0 -32 41z" />
<glyph unicode="&#x2022;" horiz-adv-x="694" d="M102 506q0 -101 72.5 -173.5t173.5 -72.5t172.5 72.5t71.5 173.5t-71.5 172.5t-172.5 71.5t-173.5 -71.5t-72.5 -172.5z" />
<glyph unicode="&#x202f;" horiz-adv-x="406" />
<glyph unicode="&#x2039;" horiz-adv-x="714" d="M117 516q0 -15 12 -27l365 -366q26 -29 53 -2l49 47q26 26 0 53l-297 295l297 297q24 25 -2 51l-47 45q-25 25 -53 -2l-365 -364q-12 -12 -12 -27z" />
<glyph unicode="&#x203a;" horiz-adv-x="714" d="M119 168l49 -47q27 -27 53 2l365 366q12 12 12 27t-12 27l-367 366q-25 25 -51 0l-47 -45q-27 -26 -2 -51l297 -297l-297 -295q-27 -27 0 -53z" />
<glyph unicode="&#x205f;" horiz-adv-x="507" />
<glyph unicode="&#x20ac;" horiz-adv-x="1378" d="M102 547v69q0 37 37 37h86q-8 47 -8 105q0 57 8 104h-86q-37 0 -37 37v70q0 37 37 37h121q81 228 281.5 375t447.5 147q149 0 264 -49q35 -12 21 -47l-21 -62q-12 -34 -47 -22q-106 36 -217 36q-189 0 -344 -105.5t-231 -272.5h569q37 0 37 -37v-70q0 -37 -37 -37h-612 q-11 -64 -11 -104q0 -41 11 -105h612q37 0 37 -37v-69q0 -37 -37 -37h-567q75 -167 231 -273t342 -106q104 0 215 39q36 12 47 -23l23 -67q12 -35 -23 -47q-128 -45 -262 -45q-251 0 -451 147t-278 375h-121q-37 0 -37 37z" />
<glyph unicode="&#x2122;" horiz-adv-x="1474" d="M72 1440v47q0 29 28 29h408q29 0 29 -29v-47q0 -29 -29 -29h-152v-635q0 -28 -28 -28h-47q-29 0 -29 28v635h-152q-28 0 -28 29zM623 776v711q0 29 28 29h35q24 0 33 -21l282 -575l285 575q9 21 33 21h35q28 0 28 -29v-711q0 -28 -28 -28h-47q-29 0 -29 28v496l-240 -479 q-10 -19 -28 -19h-15q-19 0 -28 19l-240 479v-496q0 -28 -29 -28h-47q-28 0 -28 28z" />
<glyph unicode="&#x25fc;" horiz-adv-x="1024" d="M0 0v1024h1024v-1024h-1024z" />
</font>
</defs>
</svg>
