<?xml version="1.0" encoding="utf-8"?>
<!-- Generator: Adobe Illustrator 19.0.0, SVG Export Plug-In . SVG Version: 6.00 Build 0)  -->
<svg version="1.1" id="Camada_1" xmlns="http://www.w3.org/2000/svg" xmlns:xlink="http://www.w3.org/1999/xlink" x="0px" y="0px"
	 width="289.5px" height="68.4px" viewBox="-823.5 506.5 289.5 68.4" style="enable-background:new -823.5 506.5 289.5 68.4;"
	 xml:space="preserve">
<style type="text/css">
	.st0{fill:none;stroke:#fff;stroke-miterlimit:10;}
</style>
<g id="XMLID_1566_">
	<g>
		<path id="XMLID_173_" class="st0" d="M-802,525.3c0-1.1,1-2.2,2.6-2.2c1.6,0,2.8,1.2,2.8,3.1c0,2.4-1.8,4.6-5.3,4.6
			s-7.1-2.6-7.1-7c0-4.3,3.6-8.4,9.5-8.4s9.9,4.2,9.9,11c0,9.6-7.3,16.2-21.1,16.2h-6.4c-1.1,0-1.9-0.5-1.9-1.6
			c0-1.1,0.9-1.6,1.9-1.6h4.9c13,0,19.3-4.9,19.3-13.1c0-4.6-2-7.9-6.4-7.9c-3.9,0-5.9,2.5-5.9,5.2c0,2.5,1.7,3.6,3.6,3.6
			C-801.5,527.3-802,526.3-802,525.3z M-791.5,541c1.5,0,7.6-5.2,7.6-13c0-6.1-2-9-3.4-9c-0.9,0-1.6,0.6-1.6,1.6
			c0,1.5,1.8,2.6,1.8,7.5c0,5.1-3.6,8.7-5.1,10.1c-0.5,0.5-0.8,0.9-0.8,1.4C-793,540.4-792.3,541-791.5,541z M-777.2,529.7
			c0-3.3-1-5.9-2.8-5.9c-0.8,0-1.5,0.6-1.5,1.5c0,0.6,0.9,1.6,0.9,4.8c0,3.8-2.7,6.3-4.3,7.8c-0.9,0.8-1.3,1.2-1.3,1.7
			c0,0.6,0.6,1.4,1.5,1.4C-782.6,541-777.2,535.6-777.2,529.7z M-774.2,535.9c0-1.2-0.6-1.7-1.5-1.7c-1.1,0-1.2,1.2-1.9,2.5
			c-0.8,1.3-2.1,2.1-2.1,2.9s0.9,1.5,1.7,1.5C-776.4,541-774.2,537.3-774.2,535.9z"/>
		<path id="XMLID_170_" class="st0" d="M-774.3,512.3c0-1.4,0.5-1.9,1.6-1.9c2.1,0,4.1,6.8,10.9,9.3c6.9,2.6,9.4,4.4,13.4,10
			c4.9,7,8.1,9.4,16.9,9.4c1.1,0,1.9,0.5,1.9,1.6s-0.9,1.6-1.9,1.6c-13.2,0-23.1,0-31.9-6.9C-772.2,528.5-774.3,513.7-774.3,512.3z
			 M-756.2,526.3c-4.7-3.6-8.7-3.9-12-6.4c0,0,0.2,7,7.4,12.8c5.5,4.4,12.4,5.7,16.1,5.7C-748.9,535.7-750.3,531-756.2,526.3z"/>
		<path id="XMLID_167_" class="st0" d="M-688.5,539.1c1.1,0,1.9,0.5,1.9,1.6s-0.9,1.6-1.9,1.6c-8.8,0-12,2.5-16.9,9.4
			c-4,5.6-6.5,7.4-13.4,10c-6.9,2.6-8.8,9.3-10.9,9.3c-1.1,0-1.6-0.5-1.6-1.9s2.1-16.2,10.9-23.1
			C-711.6,539.1-701.7,539.1-688.5,539.1z M-717.9,548.7c-7.2,5.8-7.4,12.8-7.4,12.8c3.3-2.6,7.3-2.8,12-6.4
			c5.9-4.6,7.3-9.3,11.5-12C-705.4,543.1-712.4,544.3-717.9,548.7z"/>
		<path id="XMLID_164_" class="st0" d="M-654.7,518.3c5.6,0,9.1,3.9,9.1,9c0,8.4-8.7,15-24.6,15h-18.2c-1.1,0-1.9-0.5-1.9-1.6
			s0.9-1.6,1.9-1.6C-667.1,539.1-666.7,518.3-654.7,518.3z M-649.4,527.2c0-3.5-2.4-5.5-5.5-5.5c-6.3,0-8.9,11.6-19.5,17.5
			C-657.6,539.2-649.4,533.3-649.4,527.2z"/>
		<path id="XMLID_161_" class="st0" d="M-602.8,569.1c0,1.4-0.5,1.9-1.6,1.9c-2.1,0-4.1-6.8-10.9-9.3c-6.9-2.6-9.4-4.4-13.4-10
			c-4.9-7-8.1-9.4-16.9-9.4c-1.1,0-1.9-0.5-1.9-1.6s0.9-1.6,1.9-1.6c13.2,0,23.1,0,31.9,6.9C-604.9,552.9-602.8,567.7-602.8,569.1z
			 M-620.9,555.1c4.7,3.6,8.7,3.9,12,6.4c0,0-0.2-7-7.4-12.8c-5.5-4.4-12.4-5.7-16.1-5.7C-628.2,545.7-626.8,550.5-620.9,555.1z"/>
		<path id="XMLID_158_" class="st0" d="M-559.9,539.1c1.1,0,1.9,0.5,1.9,1.6s-0.9,1.6-1.9,1.6c-8.8,0-12,2.5-16.9,9.4
			c-4,5.6-6.5,7.4-13.4,10c-6.9,2.6-8.8,9.3-10.9,9.3c-1.1,0-1.6-0.5-1.6-1.9s2.1-16.2,10.9-23.1
			C-583.1,539.1-573.1,539.1-559.9,539.1z M-589.3,548.7c-7.2,5.8-7.4,12.8-7.4,12.8c3.3-2.6,7.3-2.8,12-6.4
			c5.9-4.6,7.3-9.3,11.5-12C-576.9,543.1-583.8,544.3-589.3,548.7z"/>
		<path id="XMLID_156_" class="st0" d="M-561.9,540.7c0-1.1,0.9-1.6,1.9-1.6c4.8,0,7.6-0.3,7.6-3.9c0,0-1.7-0.5-1.7-2.2
			c0-1.3,1-2.2,2.1-2.2c1.4,0,2.5,1.1,2.5,2.8c0,2.3-0.9,4.1-0.9,4.1s4-2.7,4.3-7.2c0,0-1.6-0.4-1.6-2c0-1.3,1-2.2,2.2-2.2
			c1.4,0,2.6,1.1,2.6,3.2c0,4.3-2.8,7.1-3,7.3c0.4-0.3,2.7-1.5,4.8-1.5c1.6,0,2.5,0.9,2.5,2.2c0,1.2-0.9,2.1-2,2.1
			c-1.5,0-2.1-1.4-2.1-1.4c-5.5,1.4-8.4,4.2-17.3,4.2C-561,542.3-561.9,541.8-561.9,540.7z"/>
	</g>
</g>
</svg>
