<?xml version="1.0" encoding="utf-8"?>
<!-- Generator: Adobe Illustrator 19.0.0, SVG Export Plug-In . SVG Version: 6.00 Build 0)  -->
<svg version="1.1" xmlns="http://www.w3.org/2000/svg" xmlns:xlink="http://www.w3.org/1999/xlink" x="0px" y="0px"
	 viewBox="0 0 284.3 399.9" style="enable-background:new 0 0 284.3 399.9;" xml:space="preserve">

<g id="Camada_1">
</g>
<g id="Camada_20">
	<path id="XMLID_616_" class="st0" d="M149.6,265.4c7.8-13.6,22.7-30.8,51.2-49.2c21.9-14.2,35.2-32.4,39.7-54.1
		c-2.2-4-4.7-7.7-7.7-10.8c-4.1-4.2-7.5-8.5-11.3-12.2c-1.7,9-4.2,19.2-7.9,29c-1.3,3.5-2.8,6.9-4.4,10.2c-0.8,1.6-1.7,3.3-2.5,4.8
		c-0.9,1.6-1.8,3.1-2.7,4.6c-1.9,2.9-3.8,5.7-5.8,8.2c-2,2.5-4,4.7-6,6.6c-1,0.9-2,1.8-2.9,2.7c-1,0.8-1.9,1.5-2.8,2.2
		c-0.8,0.7-1.7,1.3-2.5,1.8c-0.8,0.5-1.5,1-2.2,1.5c-1.3,0.8-2.4,1.4-3.1,1.8c-0.7,0.4-1.1,0.6-1.1,0.6s0.3-0.3,1-0.9
		c0.6-0.6,1.5-1.4,2.7-2.4c0.5-0.6,1.1-1.2,1.8-1.8c0.6-0.7,1.3-1.4,2-2.2c0.7-0.8,1.4-1.7,2.1-2.6c0.7-1,1.4-2,2.1-3.1
		c1.4-2.2,2.8-4.6,4.1-7.2c1.3-2.6,2.5-5.5,3.6-8.5c0.5-1.5,1-3.1,1.5-4.6c0.4-1.6,0.9-3.2,1.3-4.8c0.7-3.3,1.4-6.6,1.9-9.9
		c0.5-3.3,0.8-6.7,1.1-10.1c0.2-3.3,0.4-6.6,0.4-9.8c0-2.9,0-5.6-0.1-8.3c-6.8,3.9-15.3,8.9-14.9,9.5c0,0-4.1,62.9-46.7,69.1
		c0,0-3.1,20.2-2.7,20.6c0.4,0.5,2.1,3,2.9,4.7C145.8,248.8,148.2,258.2,149.6,265.4z"/>
</g>
<g id="Camada_19">
	<path id="XMLID_615_" class="st0" d="M268.6,252.6c2.3-2.6,5.8-6.3,3.7-9.5c-1.3-3.8-6.6-2.9-5.9-5.6c10.4-8.6,3-14.5-9.9-23.7
		c-0.1-2.4-0.1-4.7-0.2-7.1c-1.2-0.7-2.4-1.4-3.6-2.1l-0.9-2.7c-0.2-1.8-1.7-15.6-6.9-29.5c-5.3,16.2-16.7,34.5-40.4,49.9
		c-35.5,23-48.7,43.8-53.6,56.9c0,0-19.8,56.6,30.9,104.9c0.3-1.3,0.4-1.5,0.3-1.7c-6.5-13.1-18.5-77,15.4-95.4
		c4.9-2.6,8.6-5.8,14-4.6c3.7,0.9,7.4,1.9,11.1,2.9c27,11,43.8,9.5,41.2-15.7c0.9-4.3,8.5-3.4,8.9-8.5
		C273,256.8,272.4,253.5,268.6,252.6z"/>
</g>
<g id="Camada_18">
	<path id="XMLID_613_" class="st1" d="M179,239.9l-13.5,36.5c-0.9,2.3,0.8,4.8,3.3,4.9l17.7,0.4c2.2,0.1,4-1.9,3.7-4.1
		c-1.2-8-5.2-23.2-6.5-29.4c-0.4-2-0.9-4.2-1.2-5.7c0,0-0.5-2.6-0.6-2.7c-0.8-1.5,0.3-2.2-0.3-2.1
		C180.4,237.8,179.4,238.7,179,239.9z"/>
</g>
<g id="Camada_17">
	<polygon id="XMLID_609_" class="st1" points="167.4,172.6 161.8,120.7 193.9,128.6 170.6,172.9 	"/>
</g>
<g id="Camada_16">
	<path id="XMLID_608_" class="st2" d="M150.3,205.4c0.3,2.3-3.7,7.7-4.9,10.6l17.6-7.8c2.3-1.1,4-1.1,4.5-3.6
		c1.9-9.5,0.5-23.6,3.1-33l-10,17.7C158.9,192.1,153.4,204,150.3,205.4z"/>
</g>
<g id="Camada_15">
	<path id="XMLID_607_" class="st3" d="M161.4,81.8c2.8-2.9,7.5-7.1,10.2-10.7c-0.7-4-1.5-8.4-4-10.7c-4-3.5-6.4-6-9.9-5.9l2.1,20.3
		c0.1,1.3,0.1,2.1,0.3,3.3L161.4,81.8z"/>
</g>
<g id="Camada_14">
	<path id="XMLID_606_" class="st4" d="M171.1,170.8l-0.2,0.9l24.6-15.2c6.4-3.8,5.4-2.9,10.4-10.5c2.8-4.4,6.9-9.5,9-14l-22.3-4.1
		l0.2,1.2L171.1,170.8z"/>
</g>
<g id="Camada_13">
	<path id="XMLID_602_" class="st5" d="M11.4,84.3l14,7.6C25,84.9,22,78.6,21.2,71.7c2.4-0.7,3.8-1.8,5.1-3.7l23,28.5
		c-1.5,1.6-4.2,5.3-6.2,5.5l0.3,0.8c4.2,2.2,8,4.6,12.1,7l8.8,5c0.3,0.1,1.3,0.6,1.6,0.8c1.6,0.9,0.8,0.3,1.7,1.1l0.7,1.6
		c0.3,3.4-0.3,1.2,2.3,3.4c1.5,1.3,1.8,2.3,2.9,3.2c2.5,2.1,6.5,2,9.5,3.5l-2,12.3l-0.8,4.2c-0.8,4.8,5.8,9,6.4,14.8
		c0.5,4.6,0.9,15,0.6,19.5c0.6,0.7,0.8-0.8,0.1,2c1.9,2.4,6.7,21.3,7.9,25.4l7.7,24.6c0.1-0.1,0.2,0.3,0.3,0.5
		c-0.2,4.6,5.7,18.8,6.6,25.2l19-10.6c3-2.4,3.1-7.7,5.5-10.9c1.7-2.2,7.6-3.6,9.9-5.3l1.1-14.2c1.2-2.9,5.2-8.4,4.9-10.6
		c3.1-1.4,8.6-13.2,10.3-16.2l9-16.1l0,0L11.4,84.3L11.4,84.3z M140.1,138.6c-1.2,0-1.9,0.1-3.9,0.2L140.1,138.6L140.1,138.6z
		 M169.7,173.1L11.4,84.3c-1-2.7,3.9-21.6,5.2-26.1c1.1-4.1,3.9-5.5,6.4-7.9L58.4,16c7.7,0.6,15,4.1,24,4.6c7.5,0.5,15.7,0.6,23,1.6
		l1.7,12.7c-2.4-1.1-1.8-1-3.1-1.6c-1.1-0.5-2.5-1.1-3.8-1.7C94.6,29,79.9,21.3,76,21.3c-0.9,11-2,20.9-4,31.1
		c6.7,1.3,35.3-1.7,46.4-2.2c4.1-0.2,4.4,0.5,6.5-1.4l1.5,0.6c-0.6,2.1-1.1,0.6,2.8,5.1c3.9,4.6,10.4,13.3,14.1,14.9
		c3.3-3.5,12.4-11.6,14.6-15.1c-6.3-3.9-25.3-3.1-31.5-5.5l7.4-6c5.6,1.7,13.4,5.8,19,8.4c8.3,3.8,13.1,2.7,21.8,4.1l0.4,3.1
		c0.8,24.6-9.2-5.4,3,35.7c2.5,8.3,14.5,31.9,14.3,33.9l0.2,1.2l-27.1-4c-1,4.8,2.1,27.2,2.8,35.1c0.2,2.1,0.4,4.4,0.5,6
		c0,0,0.2,2.8,0.2,2.8c0.9,2.3-1.9,2.5,2.1,1.8l-0.2,0.9l-0.3-0.2L169.7,173.1z"/>
</g>
<g id="Camada_12">
	<path id="XMLID_600_" class="st6" d="M125,48.7L107.2,35c-2.4-1.1-1.8-1-3.1-1.6c-1.1-0.5-2.5-1.1-3.8-1.7
		C94.6,29,79.9,21.3,76,21.3c-0.9,11-2,20.9-4,31.1c6.7,1.3,35.3-1.7,46.4-2.2C122.5,50,122.8,50.7,125,48.7z"/>
</g>
<g id="Camada_11">
	<path id="XMLID_90_" class="st6" d="M107.5,256.6c-0.9-3.3-10-11.9-12.6-14.5c-2.5-2.5-4-4.2-6.5-6.8c-2.1-2.3-4.7-5.3-7.1-7.1
		l3.2,26.6L107.5,256.6z"/>
</g>
<g id="Camada_8">
	<path id="XMLID_599_" class="st7" d="M81.7,227.6l-0.3,1c5.1,2,15.7,1.9,21.9,3.1c-0.1-0.2-0.2-0.6-0.3-0.5l-7.7-24.6
		c-1.2-4.2-6-23-7.9-25.4L81.7,227.6z"/>
</g>
<g id="Camada_9">
	<path id="XMLID_598_" class="st3" d="M25.4,91.9l0.2,0.6l17.5,9.5c2-0.2,4.6-3.9,6.2-5.5L26.3,68c-1.3,1.9-2.7,3-5.1,3.7
		C22,78.6,25,84.9,25.4,91.9z"/>
</g>
<g id="Camada_10">
	<path id="XMLID_597_" class="st3" d="M126.5,48.7l-0.1,0.6c-0.6,2.1-1.1,0.6,2.8,5.1c3.9,4.6,10.4,13.3,14.1,14.9
		c3.3-3.5,12.4-11.6,14.6-15.1C151.7,50.3,132.8,51.1,126.5,48.7z"/>
</g>
<g id="Camada_7">
	<path id="XMLID_575_" class="st1" d="M31.1,116.4c7.1,0.6,23.8-1.2,29,0.4c1.5-0.7,1-0.5,3.2-0.6c2.8-0.1,1.6-0.2,4.4,0.4
		c-0.9-0.8-0.1-0.3-1.7-1.1c-0.3-0.2-1.3-0.6-1.6-0.8l-8.8-5c-4.1-2.4-7.9-4.8-12.1-7c-1.6,2.5-4.1,4.9-6,6.9
		C35.1,112.4,33.5,113.9,31.1,116.4z"/>
</g>
<g id="Camada_5">
	<path id="XMLID_568_" class="st1" d="M29.8,116.8c7.1,0.6,23.8-1.2,29,0.4c1.5-0.7,1-0.5,3.2-0.6c2.8-0.1,1.6-0.2,4.4,0.4
		c-0.9-0.8-0.1-0.3-1.7-1.1c-0.3-0.2-1.3-0.6-1.6-0.8l-8.8-5c-4.1-2.4-7.9-4.8-12.1-7c-1.6,2.5-4.1,4.9-6,6.9
		C33.8,112.7,32.2,114.3,29.8,116.8z"/>
</g>
<g id="Camada_6">
	<path id="XMLID_567_" class="st2" d="M81.7,227.6l5.8-46.4c0.7-2.9,0.4-1.3-0.1-2c-1.3,2.8-4.8,7.5-6.7,10.1
		c-3.5,4.7-2.3,5.6-1.7,11.8C79.3,205.9,80.1,224.8,81.7,227.6z"/>
</g>
<g id="Camada_4">
	<path id="XMLID_566_" class="st6" d="M30.1,114.5l1,1.9c2.4-2.5,4-4.1,6.4-6.7c1.9-2.1,4.4-4.5,6-6.9l-0.3-0.8l-17.5-9.5
		C26.7,99.5,30,108.4,30.1,114.5z"/>
</g>
<g id="Camada_3">
	<path id="XMLID_565_" class="st1" d="M30.1,114.5c-0.1-6.1-3.4-15.1-4.5-22l-0.2-0.6l-14-7.6c1.8,3.1,2.8,4.9,4.4,7.7L30.1,114.5z"
		/>
</g>
<g id="Camada_2">
	<path id="XMLID_96_" class="st3" d="M160.6,81.5c2.9-2.9,7.7-7,10.5-10.5c-0.6-4.1-1.3-8.5-3.8-10.8c-4-3.7-6.3-6.2-9.8-6.2
		l1.7,20.5c0.1,1.3,0.1,2.1,0.2,3.3L160.6,81.5z"/>
</g>
</svg>
